<?xml version="1.0" encoding="UTF-8"?>
<!-- Generator: Adobe Illustrator 22.0.1, SVG Export Plug-In . SVG Version: 6.00 Build 0) -->
<svg xmlns="http://www.w3.org/2000/svg" xmlns:xlink="http://www.w3.org/1999/xlink" id="Layer_1" x="0px" y="0px" viewBox="0 0 800 599.4" style="enable-background:new 0 0 800 599.4;" xml:space="preserve"> <style type="text/css"> .st0{fill:#ED1C24;} .st1{fill:#B22227;} .st2{fill:url(#SVGID_1_);} .st3{opacity:0.6;fill:#E91D25;} .st4{fill:#FFFFFF;} </style> <g> <g> <g> <path class="st0" d="M609.5,15.8c11.2-0.5,23-0.9,34.9-0.9c27.4,0,39.7,11.9,39.7,29.9c0,12.9-5.7,22.1-17.3,27.4v0.3 c12.6,3.3,21.2,12.8,21.2,28.1c0,24-17.9,36.2-44.9,36.2c-14.7,0-25.9-0.3-33.7-0.9V15.8z M630.7,35.3v30.5h14.3 c10.5,0,17.9-5.5,17.9-16c0-9.7-7.2-15-19-15C639,34.8,634.5,35,630.7,35.3z M630.7,84.3v31.9c4.8,0.5,9.5,0.9,14,0.9 c14.7,0,22.1-5.9,22.1-17.4c0-10.2-7.8-15.4-21-15.4H630.7z"/> <path class="st0" d="M800,15.5l-43,70.4v50.4h-21.2V85.9l-42.6-70.4h24.2l30,50.6L777,15.5H800z"/> </g> </g> <g> <polygon class="st1" points="34.7,595.8 0,312.2 250.7,14.3 536.1,0 641.3,597.4 "/> <radialGradient id="SVGID_1_" cx="377.5876" cy="297.6306" r="51.0097" gradientTransform="matrix(5.5652 5.120007e-02 -5.120007e-02 5.5652 -1819.3904 -1377.975)" gradientUnits="userSpaceOnUse"> <stop offset="0" style="stop-color:#EF3E32"/> <stop offset="1" style="stop-color:#A10C11"/> </radialGradient> <polygon class="st2" points="34.7,595.8 0,312.2 250.7,14.3 536.1,0 "/> <polygon class="st3" points="250.7,16.3 536,2 641.3,599.4 "/> <polygon class="st3" points="34.7,595.9 0,312.3 641.3,597.5 "/> </g> <g> <path class="st4" d="M94.7,342.1H67.4V186.3c3.3,0,11.6,0,25.2-0.2c13.6-0.2,21.1-0.2,22.3-0.2c37.6,0,56.5,16,56.5,48.1 c0,12-3.1,21.8-9.1,29.4c-6,7.3-13.1,12.5-20.9,15.1l48.7,63.7h-33.2l-43-58.3H94.7V342.1z M94.7,211.9v46.3h17.8 c16.9,0,29.8-8.9,29.8-24c0-15.1-9.6-22.7-28.9-22.7C110.8,211.5,104.5,211.7,94.7,211.9z"/> <path class="st4" d="M297.1,242v100.2h-25.6v-12.2c-8,9.8-18.7,14.7-32.1,14.7c-20.7,0-35.2-14-35.2-41.4V242h25.6v55.9 c0,15.4,6.5,22.9,19.1,22.9c8.7,0,16.2-4,22.5-12.2V242H297.1z"/> <path class="st4" d="M325.6,186.3h25.6v61.9c7.3-5.8,16.2-8.7,26.5-8.7c14.7,0,26.3,4.7,34.7,14.2c8.7,9.3,12.9,21.6,12.9,36.7 c0,16.5-5.1,29.6-15.6,39.4c-10.2,9.8-24,14.7-41.6,14.7c-15.8,0-32.7-4.9-42.5-11.1V186.3z M351.2,273.1v42.5 c5.3,3.3,11.3,5.1,18.3,5.1c16.7,0,28.5-10.9,28.5-28.5c0-18.5-11.1-28.7-26.3-28.7C363.4,263.5,356.7,266.7,351.2,273.1z"/> <path class="st4" d="M540.2,242l-39.4,100.2c-7.1,17.4-13.6,29.2-19.1,35.2c-5.6,6.2-12,9.3-19.6,9.3c-7.3,0-14.5-2.7-21.6-7.8 l8.2-19.4c4,2.4,7.6,3.6,10.5,3.6c6,0,11.1-5.1,15.4-15.6l2.2-5.3L430.4,242h30.7l23.4,54.8c0.9,2.2,2.5,7.1,4.9,14.5 c1.1-6.5,2.5-11.4,3.6-14.7l18-54.5H540.2z"/> </g> <g> <g> <path class="st4" d="M290.5,510.3c-9.8,10.5-29.6,17.6-49.9,17.6c-23.8,0-43.2-7.3-58.1-22c-14.9-14.7-22.3-34.1-22.3-58.3 c0-23.4,7.1-42.5,21.1-57.6c14-15.1,33.6-22.7,58.5-22.7c20,0,35.8,5.3,47.4,15.8l-12.2,20.3c-10.5-6.9-22.3-10.5-35.2-10.5 c-14.7,0-26.9,4.9-36.5,14.9c-9.6,10-14.2,23.1-14.2,39.8c0,16.2,4.9,29.4,14.9,39.6c10,10,23.2,15.1,39,15.1 c13.8,0,26-4.2,36.9-12.5L290.5,510.3z"/> <path class="st4" d="M297.6,475.3c0-15.4,4.9-27.8,14.9-37.6c10-10,23.4-14.9,39.6-14.9s29.4,4.9,39.4,14.9 c10,9.8,15.1,22.3,15.1,37.6c0,15.4-5.1,27.8-15.1,37.8c-10,9.8-23.1,14.7-39.4,14.7s-29.6-4.9-39.6-14.7 C302.5,503.2,297.6,490.7,297.6,475.3z M352.1,504.1c16,0,27.4-11.6,27.4-28.7c0-16.7-11.6-28.5-27.4-28.5 c-15.4,0-27.2,11.6-27.2,28.5C325,492,336.3,504.1,352.1,504.1z"/> <path class="st4" d="M428.9,525.4V425.3h25.6v10c7.3-7.8,16.9-11.8,28.7-11.8c27.4,0,41.2,14.5,41.2,43.2v58.8h-25.6v-54.3 c0-15.8-7.6-23.6-22.5-23.6c-8.2,0-15.4,3.1-21.8,9.6v68.3H428.9z"/> <path class="st4" d="M551.6,525.4V409c0-27.4,13.1-41.8,35.6-41.8c12.7,0,22,3.1,28,9.3l-8.7,19.6c-3.3-3.3-8.2-4.9-14.7-4.9 c-9.8,0-14.7,6.7-14.7,19.8v14.2h27.2v24h-27.2v76.1H551.6z"/> </g> </g> <g> <g> <path class="st0" d="M607.6,235.1v-5.4c7.9-7.8,13.4-13.7,16.7-17.7c6.3-7.8,9.4-14.4,9.4-19.8s-3.4-9.4-9.5-9.4 c-5,0-9.3,3.3-10.4,9.3l-5.7-2.3c1.3-8.4,8.3-13.7,16.7-13.7c5.1,0,9.1,1.5,11.8,4.4c2.8,2.9,4.2,6.3,4.2,10.3 c0,7.6-4.3,16.3-10.8,23.9c-3.3,3.8-5.8,6.6-7.8,8.5c-1.9,1.9-3.9,3.8-6,5.6h26.9v6.3H607.6z"/> <path class="st0" d="M675.6,235.8c-6.3,0-11.1-2.7-14.3-8c-3.2-5.4-4.8-12.7-4.8-21.9c0-9.2,1.6-16.4,4.7-21.8 c3.2-5.4,7.9-8.1,14.3-8.1s11.1,2.7,14.2,8.1c3.2,5.3,4.8,12.6,4.8,21.8C694.3,224.3,688.2,235.8,675.6,235.8z M687.2,205.9 c0-15.6-3.6-23.6-11.8-23.6c-7.9,0-11.8,7.8-11.8,23.6s4,23.6,12,23.6C683.8,229.5,687.2,221.6,687.2,205.9z"/> <path class="st0" d="M706.7,187.2l14-10.8h4.7v58.7h-6.7V186l-8.5,6.7L706.7,187.2z"/> <path class="st0" d="M773,224.2c-5.4,6.8-12.4,10.7-20.9,11.8l-2.3-5.3c13.1-2.6,21.8-11.6,23.6-25.3c-2.6,4.8-7,7.3-13.2,7.3 c-5.1,0-9.3-1.7-12.5-5.1c-3.3-3.4-4.9-7.8-4.9-12.8c0-5.5,1.9-10,5.7-13.5c3.8-3.6,8.1-5.3,12.9-5.3c6.3,0,11.2,2.1,14.6,6.2 c3.5,4.1,5.3,9.3,5.3,15.8C781.2,208.6,778.5,217.3,773,224.2z M770.9,187c-2.2-2.9-5.3-4.4-9.4-4.4c-3.2,0-5.9,1.2-8.2,3.5 c-2.3,2.3-3.4,5-3.4,8.2c0,6.8,4.6,12.2,12,12.2c6.3,0,10.7-3.9,12.3-8.6C774.1,193.6,773,189.9,770.9,187z"/> </g> </g> </g> </svg>