<?xml version="1.0" encoding="UTF-8"?>
<svg width="112px" height="66px" viewBox="0 0 112 66" version="1.1" xmlns="http://www.w3.org/2000/svg" xmlns:xlink="http://www.w3.org/1999/xlink">
    <!-- Generator: Sketch 50.2 (55047) - http://www.bohemiancoding.com/sketch -->
    <title>EDISONDA_u2i_logo@3x</title>
    <desc>Created with Sketch.</desc>
    <defs>
        <linearGradient x1="-3.65622032%" y1="1.89222542%" x2="50%" y2="74.9897162%" id="linearGradient-1">
            <stop stop-color="#73BE44" offset="0%"></stop>
            <stop stop-color="#408E3D" offset="100%"></stop>
        </linearGradient>
        <linearGradient x1="7.21747388%" y1="17.8527355%" x2="61.6334283%" y2="90.4977376%" id="linearGradient-2">
            <stop stop-color="#73BE44" offset="0%"></stop>
            <stop stop-color="#408E3D" offset="100%"></stop>
        </linearGradient>
        <linearGradient x1="1.75688509%" y1="2.26151316%" x2="51.5669516%" y2="77.34375%" id="linearGradient-3">
            <stop stop-color="#73BE44" offset="0%"></stop>
            <stop stop-color="#408E3D" offset="100%"></stop>
        </linearGradient>
        <linearGradient x1="-0.997150997%" y1="2.30452675%" x2="50.9496676%" y2="76.3786008%" id="linearGradient-4">
            <stop stop-color="#94C73C" offset="1%"></stop>
            <stop stop-color="#44B149" offset="99%"></stop>
        </linearGradient>
        <linearGradient x1="50.8072175%" y1="26.2854792%" x2="98.1956315%" y2="102.550391%" id="linearGradient-5">
            <stop stop-color="#00A5BE" offset="0%"></stop>
            <stop stop-color="#008AAC" offset="100%"></stop>
        </linearGradient>
        <linearGradient x1="49.5251662%" y1="24.3421053%" x2="100.807217%" y2="98.6842105%" id="linearGradient-6">
            <stop stop-color="#00A5BE" offset="0%"></stop>
            <stop stop-color="#008AAC" offset="100%"></stop>
        </linearGradient>
        <linearGradient x1="50.4988124%" y1="25.7918552%" x2="98.9548694%" y2="101.563143%" id="linearGradient-7">
            <stop stop-color="#00A5BE" offset="0%"></stop>
            <stop stop-color="#008AAC" offset="100%"></stop>
        </linearGradient>
    </defs>
    <g id="Page-1" stroke="none" stroke-width="1" fill="none" fill-rule="evenodd">
        <g id="EDISONDA_u2i_logo" fill-rule="nonzero">
            <polygon id="Shape" fill="url(#linearGradient-1)" points="42.5363265 57.3055102 28.3530612 65.4881633 28.3530612 49.1161224"></polygon>
            <polygon id="Shape" fill="url(#linearGradient-2)" points="42.5363265 40.9267347 28.3530612 49.1161224 28.3530612 32.7440816"></polygon>
            <polygon id="Shape" fill="#D6E14F" points="42.5363265 24.5614286 28.3530612 32.7440816 28.3530612 16.3720408"></polygon>
            <polygon id="Shape" fill="#D6E14F" points="42.5363265 8.18938776 28.3530612 16.3720408 28.3530612 0"></polygon>
            <polygon id="Shape" fill="url(#linearGradient-3)" points="56.7195918 49.1161224 42.5363265 57.3055102 42.5363265 40.9267347"></polygon>
            <polygon id="Shape" fill="#00481B" points="28.3530612 49.1161224 42.5363265 40.9267347 42.5363265 57.3055102"></polygon>
            <polygon id="Shape" fill="url(#linearGradient-4)" points="56.7195918 32.7440816 42.5363265 40.9267347 42.5363265 24.5614286"></polygon>
            <polygon id="Shape" fill="#EFF1D2" points="28.3530612 32.7440816 42.5363265 24.5614286 42.5363265 40.9267347"></polygon>
            <polygon id="Shape" fill="#D6E14F" points="56.7195918 16.3720408 42.5363265 24.5614286 42.5363265 8.18938776"></polygon>
            <polygon id="Shape" fill="url(#linearGradient-5)" points="28.3530612 16.3720408 42.5363265 8.18938776 42.5363265 24.5614286"></polygon>
            <polygon id="Shape" fill="#94C73C" points="42.5363265 40.9267347 56.7195918 32.7440816 56.7128571 49.1093878"></polygon>
            <polygon id="Shape" fill="url(#linearGradient-6)" points="42.5363265 24.5546939 56.7195918 16.3653061 56.7128571 32.7440816"></polygon>
            <polygon id="Shape" fill="url(#linearGradient-7)" points="14.1765306 8.18265306 28.3530612 0 28.3530612 16.3720408"></polygon>
            <polygon id="Shape" fill="#94C73C" points="14.1765306 24.5614286 28.3530612 16.3720408 28.3530612 32.7440816"></polygon>
            <polygon id="Shape" fill="#94C73C" points="14.1765306 40.9267347 28.3530612 32.7440816 28.3530612 49.1161224"></polygon>
            <polygon id="Shape" fill="#00481B" points="14.1765306 57.3055102 28.3530612 49.1161224 28.3530612 65.4881633"></polygon>
            <polygon id="Shape" fill="#00481B" points="0 16.3720408 14.1765306 8.18938776 14.1765306 24.5614286"></polygon>
            <polygon id="Shape" fill="#408E3C" points="28.3530612 16.3720408 14.1765306 24.5614286 14.1765306 8.18938776"></polygon>
            <polygon id="Shape" fill="#94C73C" points="0 32.7440816 14.1765306 24.5614286 14.1765306 40.9267347"></polygon>
            <polygon id="Shape" fill="#EFF1D2" points="28.3530612 32.7440816 14.1765306 40.9267347 14.1765306 24.5614286"></polygon>
            <polygon id="Shape" fill="#00481B" points="0 49.1161224 14.1765306 40.9267347 14.1765306 57.3055102"></polygon>
            <polygon id="Shape" fill="#D6E14F" points="28.3530612 49.1161224 14.1765306 57.3055102 14.1765306 40.9267347"></polygon>
            <polygon id="Shape" fill="#408E3C" points="14.1765306 24.5614286 0 32.7508163 0 16.3720408"></polygon>
            <polygon id="Shape" fill="#408E3C" points="14.1765306 40.9402041 0 49.1228571 0 32.7508163"></polygon>
            <g id="Group" transform="translate(70.714286, 24.244898)" fill="#111515">
                <path d="M13.2067347,24.8644898 L11.5836735,24.8644898 C11.410745,24.8632655 11.2461973,24.7898261 11.1298064,24.6619241 C11.0134156,24.5340221 10.9557744,24.3632977 10.9708163,24.1910204 L10.9708163,23.5714286 C9.425425,24.5372992 7.64116155,25.0527531 5.81877551,25.0597959 C1.92612245,25.0597959 0.181836735,22.6353061 0.181836735,18.325102 L0.181836735,7.6977551 C0.181836735,7.32580823 0.48335925,7.02428571 0.855306122,7.02428571 L2.41102041,7.02428571 C2.78296728,7.02428571 3.0844898,7.32580823 3.0844898,7.6977551 L3.0844898,18.3520408 C3.0844898,21.6318367 4.1822449,22.6353061 6.64714286,22.6353061 C8.18276632,22.5466217 9.67881992,22.1139169 11.0246939,21.3691837 L11.0246939,7.6977551 C11.0246939,7.32580823 11.3262164,7.02428571 11.6981633,7.02428571 L13.287551,7.02428571 C13.6356429,7.05573874 13.9018263,7.34824793 13.9004082,7.6977551 L13.9004082,24.244898 C13.9016857,24.4229032 13.8263407,24.5928589 13.6935794,24.7114419 C13.560818,24.8300248 13.383467,24.8857782 13.2067347,24.8644898 Z" id="Shape"></path>
                <path d="M28.8514286,12.6208163 L25.7467347,14.7287755 C22.1436735,17.16 21.207551,18.81 21.207551,21.6318367 L21.207551,22.3053061 L32.1244898,22.3053061 C32.2894147,22.2757046 32.4590289,22.3198484 32.588598,22.426095 C32.7181671,22.5323417 32.7946807,22.6900227 32.7979592,22.857551 L32.7979592,24.2853061 C32.7956869,24.4551944 32.7206105,24.6159371 32.5917922,24.7267209 C32.4629739,24.8375046 32.2928041,24.8876736 32.1244898,24.8644898 L19.2612245,24.8644898 C19.0889471,24.8795318 18.9182228,24.8218905 18.7903208,24.7054997 C18.6624188,24.5891089 18.5889794,24.4245611 18.5877551,24.2516327 L18.5877551,21.6318367 C18.5877551,18.2644898 20.0087755,15.4695918 23.5444898,13.112449 L26.817551,10.9034694 C29.5114286,9.09183673 30.1512245,8.31061224 30.1512245,6.36428571 C30.1512245,4.03408163 28.8042857,2.99693878 25.2887755,2.99693878 C23.3698858,3.03931892 21.4556247,3.20352699 19.557551,3.48857143 L19.4295918,3.48857143 C19.2795529,3.48984286 19.136318,3.42606486 19.0368746,3.3137068 C18.9374313,3.20134874 18.8915287,3.051426 18.9110204,2.90265306 L18.9110204,1.79816327 C18.9110204,1.47489796 19.2073469,1.27959184 19.5238776,1.2122449 C21.4128862,0.764926475 23.3475265,0.538917095 25.2887755,0.53877551 C30.5418367,0.53877551 33.0404082,2.35714286 33.0404082,6.33734694 C33.0673469,8.93020408 31.8685714,10.5802041 28.8514286,12.6208163 Z" id="Shape"></path>
                <path d="M40.4553061,4.19571429 L38.8053061,4.19571429 C38.4333593,4.19571429 38.1318367,3.89419177 38.1318367,3.5222449 L38.1318367,0.956326531 C38.1318367,0.584379658 38.4333593,0.282857143 38.8053061,0.282857143 L40.4553061,0.282857143 C40.827253,0.282857143 41.1287755,0.584379658 41.1287755,0.956326531 L41.1287755,3.54244898 C41.1178496,3.90648254 40.8195036,4.19587821 40.4553061,4.19571429 Z M40.4081633,24.8644898 L38.852449,24.8644898 C38.4805021,24.8644898 38.1789796,24.5629673 38.1789796,24.1910204 L38.1789796,7.6977551 C38.1789796,7.32580823 38.4805021,7.02428571 38.852449,7.02428571 L40.4081633,7.02428571 C40.7801101,7.02428571 41.0816327,7.32580823 41.0816327,7.6977551 L41.0816327,24.244898 C41.0534836,24.5956556 40.7600468,24.8656175 40.4081633,24.8644898 Z" id="Shape"></path>
            </g>
        </g>
    </g>
</svg>