<?xml version="1.0" encoding="utf-8"?>
<!-- Generator: Adobe Illustrator 25.2.3, SVG Export Plug-In . SVG Version: 6.00 Build 0)  -->
<svg version="1.1" id="Layer_1" xmlns="http://www.w3.org/2000/svg" xmlns:xlink="http://www.w3.org/1999/xlink" x="0px" y="0px"
	 viewBox="0 0 304.61 90.13" style="enable-background:new 0 0 304.61 90.13;" xml:space="preserve">
<style type="text/css">
	.st0{fill:#4C9FD8;}
</style>
<g>
	<path class="st0" d="M106.8,53.39c-0.48,0-0.92,0.31-1.06,0.78c-0.98,3.29-3.75,4.95-8.25,4.95c-5.74,0-9.37-3.42-10.06-9.4
		c-0.04-0.33,0.23-0.61,0.55-0.61l32.83,0c0.61,0,1.11-0.5,1.11-1.11v-3.42c0-8.25-2.59-14.95-7.49-19.39
		c-4.4-3.98-10.49-6.09-17.6-6.09c-7.38,0-14.1,2.48-18.93,6.98c-5.08,4.73-7.76,11.25-7.76,18.87v0.75c0,7.73,2.63,14.18,7.6,18.65
		c4.76,4.28,11.4,6.54,19.19,6.54c7.35,0,13.24-1.53,17.51-4.55c3.87-2.74,6.31-6.63,7.27-11.59c0.13-0.69-0.39-1.33-1.09-1.33
		L106.8,53.39z M88.23,39.4c-0.34,0-0.61-0.32-0.55-0.65c1.01-5.31,4.31-8.33,9.15-8.33c5.08,0,8,2.89,8.48,8.38
		c0.03,0.32-0.23,0.6-0.56,0.6L88.23,39.4z"/>
	<path class="st0" d="M200.15,50.18l-9.38-28.99c-0.15-0.46-0.57-0.77-1.06-0.77h-32.06c-0.37,0-0.71,0.18-0.92,0.48l-11.73,17.22
		c-0.31,0.45-1.01,0.23-1.01-0.31V4.73c0-0.61-0.5-1.11-1.11-1.11h-14.82c-0.61,0-1.11,0.5-1.11,1.11v63.93
		c0,0.61,0.5,1.11,1.11,1.11h14.82c0.61,0,1.11-0.5,1.11-1.11V50.5c0-0.56,0.73-0.77,1.03-0.29l11.72,19.03
		c0.2,0.33,0.56,0.53,0.94,0.53h16.4c0.88,0,1.41-0.97,0.93-1.71l-16.14-25.13c-0.12-0.19-0.12-0.44,0.02-0.63l13.66-18.78
		c0.26-0.36,0.82-0.28,0.97,0.14l16.66,45.38c0.16,0.44,0.58,0.73,1.04,0.73h16.92c0.47,0,0.88-0.29,1.04-0.73l17.21-47.13
		c0.26-0.72-0.27-1.49-1.04-1.49h-13.9c-0.48,0-0.91,0.31-1.06,0.77l-9.2,28.98C201.05,50.69,200.32,50.69,200.15,50.18z"/>
	<path class="st0" d="M284.88,42.93c-0.12-0.19-0.12-0.44,0.02-0.63l14.64-20.12c0.53-0.73,0.01-1.76-0.9-1.76h-14.98
		c-0.37,0-0.71,0.18-0.92,0.48l-11.73,17.22c-0.31,0.45-1.01,0.23-1.01-0.31V4.73c0-0.61-0.5-1.11-1.11-1.11h-14.82
		c-0.61,0-1.11,0.5-1.11,1.11v63.93c0,0.61,0.5,1.11,1.11,1.11h14.82c0.61,0,1.11-0.5,1.11-1.11V50.5c0-0.56,0.73-0.77,1.03-0.29
		l11.69,18.98c0.2,0.33,0.56,0.53,0.94,0.53l16.44,0.05c0.88,0,1.41-0.97,0.93-1.71L284.88,42.93z"/>
	<path class="st0" d="M35.3,57.34c-3.27,0-4.87-1.65-4.87-5.06V32.66c0-0.31,0.25-0.55,0.55-0.55H39c0.61,0,1.11-0.5,1.11-1.11
		v-9.46c0-0.61-0.5-1.11-1.11-1.11h-7.95c-0.31,0-0.55-0.25-0.55-0.55V4.73c0-0.61-0.5-1.11-1.11-1.11l-14.76,0
		c-0.65,0-1.16,0.55-1.11,1.2c0.46,6.54,4.64,12.13,10.43,14.54c0.56,0.23,0.4,1.06-0.21,1.06c-5.6,0-15.56,0-18.88,0
		c-0.61,0-1.1,0.5-1.1,1.11v9.46c0,0.61,0.5,1.11,1.11,1.11h8c0.31,0,0.56,0.25,0.55,0.56L13.4,53.88
		c0,11.29,5.85,17.02,17.39,17.02c3.44,0,6.34-0.65,8.43-1.18c0.49-0.13,0.83-0.57,0.83-1.07l0-10.63c0-0.72-0.67-1.26-1.36-1.08
		C37.61,57.21,36.54,57.34,35.3,57.34z"/>
	<path class="st0" d="M48.13,4.82c0.46,6.54,4.64,12.13,10.43,14.54c0.56,0.23,0.4,1.06-0.21,1.06c-3.08,0-7.15,0-9.08,0
		c-0.61,0-1.11,0.5-1.11,1.11v47.38c0,3.42-1.49,5.14-4.95,5.62c-0.55,0.08-0.96,0.54-0.96,1.1l0.01,10.31
		c0,0.62,0.51,1.12,1.12,1.11c7.9-0.14,13.46-1.73,16.97-4.87c3.19-2.85,4.75-7.06,4.75-12.89V4.73c0-0.61-0.49-1.11-1.11-1.11
		c-3.07,0-11.65,0-14.77,0C48.59,3.62,48.09,4.17,48.13,4.82z"/>
	<path class="st0" d="M245.76,3.62H231c-0.65,0-1.16,0.55-1.11,1.2c0.46,6.54,4.64,12.13,10.43,14.54c0.56,0.23,0.4,1.06-0.21,1.06
		h-9.16c-0.61,0-1.11,0.5-1.11,1.11v47.13c0,0.61,0.5,1.11,1.11,1.11h14.82c0.61,0,1.11-0.5,1.11-1.11l-0.01-63.93
		C246.87,4.12,246.37,3.62,245.76,3.62z"/>
</g>
</svg>
