<svg xmlns="http://www.w3.org/2000/svg" xmlns:xlink="http://www.w3.org/1999/xlink" viewBox="0 0 692.66 220.27"><defs><style>.cls-1{fill:none;}.cls-2{clip-path:url(#clip-path);}.cls-3{fill:#2e2d2c;}.cls-4{clip-path:url(#clip-path-4);}.cls-5{fill:url(#Gradient_bez_nazwy);}.cls-6{opacity:0.75;}.cls-7{clip-path:url(#clip-path-6);}.cls-8{clip-path:url(#clip-path-7);}.cls-9{fill:url(#Gradient_bez_nazwy_3);}.cls-10{opacity:0.6;}.cls-11{clip-path:url(#clip-path-8);}.cls-12{clip-path:url(#clip-path-9);}.cls-13{fill:url(#Gradient_bez_nazwy_3-2);}.cls-14{clip-path:url(#clip-path-10);}.cls-15{fill:url(#Gradient_bez_nazwy_4);}</style><clipPath id="clip-path" transform="translate(15.54 6.7)"><rect class="cls-1" width="677.11" height="213.57"/></clipPath><clipPath id="clip-path-4" transform="translate(15.54 6.7)"><path class="cls-1" d="M139.21,20.9a10,10,0,0,0,10.12,10.62c6.24,0,10.91-4.34,10.76-10.62,0-6.59-4.52-10.63-10.44-10.63-5.61,0-10.6,4-10.44,10.63"/></clipPath><linearGradient id="Gradient_bez_nazwy" x1="-383.42" y1="-260.76" x2="-382.42" y2="-260.76" gradientTransform="matrix(-17.64, 0, 0, 17.64, -6603.61, 4620.87)" gradientUnits="userSpaceOnUse"><stop offset="0" stop-color="#ab141e"/><stop offset="0.08" stop-color="#b0141f"/><stop offset="0.48" stop-color="#c41524"/><stop offset="0.75" stop-color="#cb1526"/><stop offset="1" stop-color="#cb1526"/></linearGradient><clipPath id="clip-path-6" transform="translate(15.54 6.7)"><rect class="cls-1" x="165.48" y="4.53" width="20.89" height="21.25"/></clipPath><clipPath id="clip-path-7" transform="translate(15.54 6.7)"><path class="cls-1" d="M186.37,15.16c.15,6.28-4.52,10.62-10.76,10.62a10,10,0,0,1-10.13-10.62c-.16-6.59,4.84-10.63,10.45-10.63,5.92,0,10.44,4,10.44,10.63"/></clipPath><linearGradient id="Gradient_bez_nazwy_3" x1="-381.7" y1="-274" x2="-380.7" y2="-274" gradientTransform="matrix(-25.08, 0, 0, 25.08, -9379.08, 6888.49)" gradientUnits="userSpaceOnUse"><stop offset="0" stop-color="#a1141b"/><stop offset="0.18" stop-color="#af141f"/><stop offset="0.52" stop-color="#c31524"/><stop offset="0.75" stop-color="#ca1526"/><stop offset="1" stop-color="#ca1526"/></linearGradient><clipPath id="clip-path-8" transform="translate(15.54 6.7)"><rect class="cls-1" x="190.85" width="20.89" height="21.25"/></clipPath><clipPath id="clip-path-9" transform="translate(15.54 6.7)"><path class="cls-1" d="M211.74,10.63c.15,6.28-4.53,10.62-10.75,10.62a10,10,0,0,1-10.14-10.62A10.11,10.11,0,0,1,201.29,0c5.92,0,10.45,4,10.45,10.63"/></clipPath><linearGradient id="Gradient_bez_nazwy_3-2" x1="-388.4" y1="-281.35" x2="-387.4" y2="-281.35" gradientTransform="matrix(-40.67, 0, 0, 40.67, -15563.39, 11451.97)" xlink:href="#Gradient_bez_nazwy_3"/><clipPath id="clip-path-10" transform="translate(15.54 6.7)"><polygon class="cls-1" points="24.24 108.14 0 132.77 0.08 142.76 34.66 142.95 34.7 108.06 24.24 108.14"/></clipPath><linearGradient id="Gradient_bez_nazwy_4" x1="-384.4" y1="-261.69" x2="-383.4" y2="-261.69" gradientTransform="matrix(-18.08, 0, 0, 18.08, -6910.04, 4856.32)" gradientUnits="userSpaceOnUse"><stop offset="0" stop-color="#a1141b"/><stop offset="1" stop-color="#ca1526"/></linearGradient></defs><title>Logo - v1@svg</title><g id="Warstwa_2" data-name="Warstwa 2"><g id="Warstwa_1-2" data-name="Warstwa 1"><g id="Kompozycja_1" data-name="Kompozycja 1"><g class="cls-2"><g class="cls-2"><g class="cls-2"><path class="cls-3" d="M134.51,125.74a93.81,93.81,0,0,0,1.25,16.76H117.37l-1.09-7.19H116a20.18,20.18,0,0,1-16.83,8.38C87.6,143.69,79,134.42,79,121.4c0-19.15,17.61-27.08,34.91-27.23V92.53c0-5.69-3.59-9.88-10.75-9.88A29.45,29.45,0,0,0,87.6,86.84L83.86,73.68c4.21-2.4,13.09-5.54,23.69-5.54,23.22,0,27,15.56,27,30.38Zm-19.95-18.85c-6.85.15-16.2,2.24-16.2,12.42,0,7.33,4.2,10,7.32,10a8.83,8.83,0,0,0,8.42-6.28,12.33,12.33,0,0,0,.46-3.44Z" transform="translate(15.54 6.7)"/></g><g class="cls-4"><rect class="cls-5" x="135.13" y="6.38" width="29.05" height="29.03" transform="translate(71.49 146.13) rotate(-59.62)"/></g><g class="cls-2"><path class="cls-3" d="M369.84,126.65a93.88,93.88,0,0,0,1.25,16.76H352.7l-1.09-7.19h-.32a20.15,20.15,0,0,1-16.83,8.39c-11.53,0-20.1-9.29-20.1-22.3,0-19.15,17.61-27.08,34.91-27.23V93.43c0-5.68-3.59-9.87-10.75-9.87a29.45,29.45,0,0,0-15.59,4.19l-3.74-13.17c4.21-2.39,13.09-5.53,23.69-5.53,23.22,0,27,15.56,27,30.37ZM349.89,107.8c-6.85.15-16.21,2.24-16.21,12.42,0,7.33,4.21,10,7.33,10a8.81,8.81,0,0,0,8.41-6.28,12,12,0,0,0,.47-3.45Z" transform="translate(15.54 6.7)"/><path class="cls-3" d="M390.21,71.15l7.49,38c.78,4.34,1.4,8.38,2,12.27H400c.63-3.74,1.25-7.93,1.87-12l6.39-38.3h19.95l-15.58,56.4c-3.74,13.77-8.73,28-17,37.4a40.57,40.57,0,0,1-17.3,11.52l-6.23-16.89a31.36,31.36,0,0,0,10.13-6.14,26.3,26.3,0,0,0,6.38-8.68,7.5,7.5,0,0,0,1.1-3.14,8.8,8.8,0,0,0-.62-2.7L368.24,71.15Z" transform="translate(15.54 6.7)"/><path class="cls-3" d="M578,113.78c.32,11.37,7.17,15.56,16.21,15.56A46.74,46.74,0,0,0,608.66,127L611.47,141a65.66,65.66,0,0,1-21,3.3c-20.73,0-32.11-13.18-32.11-36.07,0-24.53,13.25-39.19,30.54-39.19,16.37,0,25.88,12.42,25.88,34.56,0,5.24-.16,8.08-.63,10.17ZM596.19,100c0-9.43-2.49-16.76-8.56-16.76-6.7,0-9.35,9.43-9.51,16.76Z" transform="translate(15.54 6.7)"/><g class="cls-6"><g class="cls-7"><g class="cls-8"><rect class="cls-9" x="162.82" y="2.07" width="26.21" height="26.18" transform="translate(129.04 187.03) rotate(-74.22)"/></g></g></g><g class="cls-10"><g class="cls-11"><g class="cls-12"><rect class="cls-13" x="187.73" y="-2.92" width="27.13" height="27.09" transform="translate(139.29 203.38) rotate(-70.39)"/></g></g></g></g><g class="cls-14"><rect class="cls-15" x="-6.59" y="101.59" width="47.88" height="47.82" transform="translate(-83.18 81.42) rotate(-58.5)"/></g><g class="cls-2"><path class="cls-3" d="M63.27,135.21c0,4.75-4.61,8.6-10.29,8.6S42.7,140,42.7,135.21V92c0-7.33-.32-15.26-.63-22H59.84l1.09,10.62h.46c3.44-7.78,9.51-11.82,15.12-11.82a17.9,17.9,0,0,1,4.37.3V88.57a19.24,19.24,0,0,0-4.37-.3c-4.36,0-10.13,2.84-12.46,10.47a28.49,28.49,0,0,0-.78,7.33Z" transform="translate(15.54 6.7)"/><path class="cls-3" d="M140.58,54.26H161l-.11,81c0,4.75-4.57,8.6-10.22,8.6s-10.22-3.85-10.22-8.6Z" transform="translate(15.54 6.7)"/><path class="cls-3" d="M192.44,39.87h10.94v9.37H192.2l-1.25,0,0,85.77c0,4.75-4.58,8.6-10.23,8.6s-10.23-3.85-10.23-8.6V39.87h21.91Z" transform="translate(15.54 6.7)"/><path class="cls-3" d="M276.56,117.94a207.44,207.44,0,0,1-3.89-22.74h-.31A172.7,172.7,0,0,1,268,118.09l-4.89,18.75c-1,3.88-5.32,6.78-10.43,6.78s-9.5-3-10.47-6.91L225.29,70.37h21.82l4,31.56c1.09,7.93,2,15.26,2.65,22.15h.47c1.25-6.89,2.81-15,4.2-21.85l6.71-31.86h15.74l6.55,31.11c1.55,8.23,3,15.41,3.89,22.6h.47c.47-6.89,1.4-14.51,2.65-22.45l4.68-31.26h20.1l-18,66.87c-1.15,3.65-5.27,6.35-10.18,6.35s-9-2.71-10.17-6.36Z" transform="translate(15.54 6.7)"/><path class="cls-3" d="M554.24,135.21c0,4.75-4.57,8.6-10.22,8.6s-10.22-3.85-10.22-8.6l.1-34.89c0-8.38-.94-15.12-7.17-15.12-3.58,0-6.24,2.4-7.64,6.74a20.77,20.77,0,0,0-.62,5.08l.09,38.19c0,4.75-4.58,8.6-10.22,8.6s-10.22-3.85-10.22-8.6l.09-37.74c0-5.23-.62-12.27-7-12.27-3.11,0-6.22,2.25-7.63,6.59a18.51,18.51,0,0,0-.78,5.53l.11,38.12c0,4.75-4.58,8.6-10.22,8.6s-10.23-3.85-10.23-8.6l.09-43.2c0-8.08-.48-15.11-.63-22h17.76l.94,8.52h.31a22.22,22.22,0,0,1,18.24-9.72c8.57,0,14,3.74,16.67,9.87h.31a25.11,25.11,0,0,1,7.64-7.33,23.13,23.13,0,0,1,10.75-2.54c13.56,0,19.64,10.32,19.64,28Z" transform="translate(15.54 6.7)"/><path class="cls-3" d="M676.87,135.51c0,4.75-4.62,8.6-10.33,8.6s-10.34-3.85-10.34-8.6l.08-37.89c0-6.13-1.55-12.11-7.48-12.11-3.42,0-6.23,2.24-7.63,6.58a18.53,18.53,0,0,0-1.09,6.73L640,135.2c0,4.75-4.5,8.61-10.08,8.61s-10.11-3.84-10.12-8.58l-.09-43c0-8.08-.47-15.11-.63-22h17.61l.94,8.37h.31a22.11,22.11,0,0,1,18.54-9.57c14.5,0,20.27,11.07,20.27,27.38Z" transform="translate(15.54 6.7)"/><rect class="cls-3" x="223.14" y="104.12" width="15.52" height="14.9"/><rect class="cls-3" x="451.09" y="104.1" width="15.52" height="14.9"/><path class="cls-3" d="M45.67,203.49a8.78,8.78,0,0,0,4.11,1.19c2.21,0,3.27-1.09,3.27-2.53s-.88-2.24-3.13-3.09c-3.09-1.12-4.53-2.77-4.53-4.81,0-2.74,2.25-5,5.87-5a7.84,7.84,0,0,1,4.14,1l-.74,2.25a6.55,6.55,0,0,0-3.47-1c-1.83,0-2.81,1-2.81,2.32s1,2,3.19,2.91c2.92,1.09,4.46,2.56,4.46,5.09,0,3-2.35,5.13-6.32,5.13a9.58,9.58,0,0,1-4.77-1.2Z" transform="translate(15.54 6.7)"/><path class="cls-3" d="M81,198c0,6.28-4.39,9-8.46,9-4.57,0-8.15-3.37-8.15-8.74,0-5.66,3.76-9,8.43-9,4.88,0,8.18,3.54,8.18,8.71m-13.45.17c0,3.72,2.11,6.53,5.13,6.53s5.16-2.77,5.16-6.6c0-2.88-1.44-6.49-5.09-6.49s-5.2,3.37-5.2,6.56" transform="translate(15.54 6.7)"/><path class="cls-3" d="M90.83,206.61V192H88.48v-2.35h2.35v-.81c0-2.39.56-4.57,2-5.93a5.88,5.88,0,0,1,4.14-1.58,6.9,6.9,0,0,1,2.63.49l-.42,2.38a4.47,4.47,0,0,0-2-.38c-2.64,0-3.3,2.28-3.3,4.91v.92H98V192h-4.1v14.64Z" transform="translate(15.54 6.7)"/><path class="cls-3" d="M110.49,185.54v4.08h4.43V192h-4.43v9.17c0,2.1.6,3.3,2.32,3.3a5.77,5.77,0,0,0,1.79-.21l.14,2.35A8.39,8.39,0,0,1,112,207a4.39,4.39,0,0,1-3.33-1.3c-.85-.95-1.2-2.46-1.2-4.46V192h-2.63v-2.35h2.63v-3.16Z" transform="translate(15.54 6.7)"/><path class="cls-3" d="M125.56,189.62l2.28,8.64c.46,1.89.91,3.65,1.23,5.4h.1c.39-1.72,1-3.54,1.51-5.37l2.78-8.67h2.6l2.63,8.5c.63,2,1.12,3.82,1.51,5.54h.11a51.06,51.06,0,0,1,1.29-5.51l2.43-8.53h3.05l-5.48,17h-2.8l-2.6-8.11a55,55,0,0,1-1.51-5.58h-.07a50,50,0,0,1-1.55,5.62l-2.74,8.07h-2.81l-5.12-17Z" transform="translate(15.54 6.7)"/><path class="cls-3" d="M167.59,202.54a29.23,29.23,0,0,0,.24,4.07h-2.77l-.25-2.14h-.1a6.33,6.33,0,0,1-5.2,2.53,4.84,4.84,0,0,1-5.2-4.88c0-4.11,3.66-6.36,10.22-6.32v-.35c0-1.37-.38-3.94-3.86-3.9a8.23,8.23,0,0,0-4.46,1.26l-.7-2.07a11,11,0,0,1,5.62-1.47c5.19,0,6.46,3.54,6.46,6.91Zm-3-4.6c-3.37-.07-7.2.53-7.2,3.83a2.71,2.71,0,0,0,2.88,2.95,4.29,4.29,0,0,0,4.18-2.85,3.3,3.3,0,0,0,.14-1Z" transform="translate(15.54 6.7)"/><path class="cls-3" d="M178.19,194.92c0-2,0-3.72-.14-5.3h2.7l.15,3.37h.1a5.14,5.14,0,0,1,4.74-3.72,5.49,5.49,0,0,1,.84.07v2.91a4.77,4.77,0,0,0-1.05-.07c-2.18,0-3.72,1.62-4.14,3.93a9.36,9.36,0,0,0-.11,1.44v9.06h-3.09Z" transform="translate(15.54 6.7)"/><path class="cls-3" d="M196.66,198.68c.07,4.18,2.71,5.9,5.83,5.9a11.13,11.13,0,0,0,4.71-.88l.56,2.21a13.9,13.9,0,0,1-5.69,1.09c-5.23,0-8.36-3.48-8.36-8.6s3-9.13,8-9.13c5.59,0,7,4.84,7,8a7.49,7.49,0,0,1-.11,1.44Zm9.06-2.21c0-1.94-.81-5-4.28-5-3.16,0-4.5,2.84-4.74,5Z" transform="translate(15.54 6.7)"/><path class="cls-3" d="M268.11,181.68v20.54c0,1.51.07,3.24.14,4.39h-2.73l-.15-3h-.1a6.13,6.13,0,0,1-5.72,3.34c-4.11,0-7.31-3.48-7.31-8.64,0-5.65,3.51-9.09,7.62-9.09a5.7,5.7,0,0,1,5.13,2.56h.07V181.68Zm-3.05,14.86a5.69,5.69,0,0,0-.14-1.3,4.55,4.55,0,0,0-4.46-3.55c-3.2,0-5.09,2.81-5.09,6.53,0,3.44,1.72,6.29,5,6.29a4.69,4.69,0,0,0,4.53-3.69,5.63,5.63,0,0,0,.14-1.34Z" transform="translate(15.54 6.7)"/><path class="cls-3" d="M280.61,198.68c.07,4.18,2.71,5.9,5.83,5.9a11.06,11.06,0,0,0,4.71-.88l.56,2.21A13.86,13.86,0,0,1,286,207c-5.23,0-8.36-3.48-8.36-8.6s3-9.13,8-9.13c5.58,0,7,4.84,7,8a7.49,7.49,0,0,1-.11,1.44Zm9.06-2.21c0-1.94-.8-5-4.28-5-3.16,0-4.49,2.84-4.74,5Z" transform="translate(15.54 6.7)"/><path class="cls-3" d="M303.3,189.62l3.33,9.51c.56,1.58,1,3,1.37,4.39h.11c.38-1.4.88-2.81,1.44-4.39l3.3-9.51h3.23l-6.67,17h-3l-6.46-17Z" transform="translate(15.54 6.7)"/><path class="cls-3" d="M326,198.68c.07,4.18,2.71,5.9,5.83,5.9a11.13,11.13,0,0,0,4.71-.88l.56,2.21a13.9,13.9,0,0,1-5.69,1.09c-5.23,0-8.36-3.48-8.36-8.6s3-9.13,8-9.13c5.59,0,7,4.84,7,8a7.49,7.49,0,0,1-.11,1.44Zm9.06-2.21c0-1.94-.81-5-4.28-5-3.16,0-4.5,2.84-4.74,5Z" transform="translate(15.54 6.7)"/><rect class="cls-3" x="363.01" y="188.38" width="3.09" height="24.93"/><path class="cls-3" d="M376.76,198c0,6.28-4.39,9-8.47,9-4.56,0-8.14-3.37-8.14-8.74,0-5.66,3.75-9,8.42-9,4.89,0,8.19,3.54,8.19,8.71m-13.45.17c0,3.72,2.1,6.53,5.12,6.53s5.17-2.77,5.17-6.6c0-2.88-1.44-6.49-5.1-6.49s-5.19,3.37-5.19,6.56" transform="translate(15.54 6.7)"/><path class="cls-3" d="M386.27,195.17c0-2.18-.07-3.94-.14-5.55h2.74l.18,2.91h.07a6.59,6.59,0,0,1,6-3.26c4.15,0,7.24,3.47,7.24,8.6,0,6.11-3.76,9.13-7.76,9.13a6,6,0,0,1-5.23-2.67h-.07v9.24h-3.06Zm3.06,4.53a4.64,4.64,0,0,0,.14,1.26,4.77,4.77,0,0,0,4.63,3.62c3.27,0,5.16-2.67,5.16-6.57,0-3.37-1.79-6.29-5.05-6.29a4.87,4.87,0,0,0-4.67,3.8,4.73,4.73,0,0,0-.21,1.23Z" transform="translate(15.54 6.7)"/><path class="cls-3" d="M411.87,194.22c0-1.79-.07-3.2-.14-4.6h2.7l.14,2.77h.11a5.88,5.88,0,0,1,5.37-3.12,5,5,0,0,1,4.78,3.4h.07a6.71,6.71,0,0,1,1.93-2.21,5.72,5.72,0,0,1,3.72-1.19c2.28,0,5.62,1.47,5.62,7.37v10h-3V197c0-3.3-1.23-5.24-3.69-5.24a4.07,4.07,0,0,0-3.69,2.78,5.29,5.29,0,0,0-.24,1.54v10.5h-3V196.43c0-2.7-1.2-4.64-3.55-4.64a4.28,4.28,0,0,0-3.83,3.1,4.24,4.24,0,0,0-.24,1.51v10.21h-3Z" transform="translate(15.54 6.7)"/><path class="cls-3" d="M448.49,198.68c.07,4.18,2.71,5.9,5.83,5.9a11.13,11.13,0,0,0,4.71-.88l.56,2.21A13.86,13.86,0,0,1,453.9,207c-5.23,0-8.36-3.48-8.36-8.6s3-9.13,8-9.13c5.59,0,7,4.84,7,8a7.49,7.49,0,0,1-.11,1.44Zm9.06-2.21c0-1.94-.81-5-4.28-5-3.16,0-4.49,2.84-4.74,5Z" transform="translate(15.54 6.7)"/><path class="cls-3" d="M470,194.22c0-1.79,0-3.2-.14-4.6h2.74l.18,2.81h.07a6.29,6.29,0,0,1,5.62-3.16c2.35,0,6,1.4,6,7.23v10.11h-3.09v-9.79c0-2.74-1-5-3.93-5a4.53,4.53,0,0,0-4.36,4.61v10.21H470Z" transform="translate(15.54 6.7)"/><path class="cls-3" d="M498.67,185.54v4.08h4.43V192h-4.43v9.17c0,2.1.6,3.3,2.32,3.3a5.81,5.81,0,0,0,1.79-.21l.14,2.35a8.49,8.49,0,0,1-2.74.42,4.41,4.41,0,0,1-3.34-1.3c-.84-.95-1.19-2.46-1.19-4.46V192H493v-2.35h2.63v-3.16Z" transform="translate(15.54 6.7)"/><path class="cls-3" d="M547.09,203.49a8.75,8.75,0,0,0,4.11,1.19c2.21,0,3.26-1.09,3.26-2.53s-.88-2.24-3.12-3.09c-3.09-1.12-4.53-2.77-4.53-4.81,0-2.74,2.24-5,5.86-5a7.91,7.91,0,0,1,4.15,1l-.74,2.25a6.62,6.62,0,0,0-3.48-1c-1.82,0-2.81,1-2.81,2.32s1,2,3.2,2.91c2.91,1.09,4.46,2.56,4.46,5.09,0,3-2.36,5.13-6.32,5.13a9.62,9.62,0,0,1-4.78-1.2Z" transform="translate(15.54 6.7)"/><path class="cls-3" d="M570.75,185.54v4.08h4.43V192h-4.43v9.17c0,2.1.6,3.3,2.32,3.3a5.77,5.77,0,0,0,1.79-.21l.14,2.35a8.39,8.39,0,0,1-2.74.42,4.4,4.4,0,0,1-3.33-1.3c-.84-.95-1.2-2.46-1.2-4.46V192H565.1v-2.35h2.63v-3.16Z" transform="translate(15.54 6.7)"/><path class="cls-3" d="M596.21,202.54a27.67,27.67,0,0,0,.25,4.07h-2.78l-.24-2.14h-.11a6.29,6.29,0,0,1-5.19,2.53,4.84,4.84,0,0,1-5.2-4.88c0-4.11,3.65-6.36,10.22-6.32v-.35c0-1.37-.39-3.94-3.87-3.9a8.22,8.22,0,0,0-4.45,1.26l-.71-2.07a11,11,0,0,1,5.62-1.47c5.2,0,6.46,3.54,6.46,6.91Zm-3-4.6c-3.37-.07-7.2.53-7.2,3.83a2.71,2.71,0,0,0,2.88,2.95,4.3,4.3,0,0,0,4.18-2.85,3.67,3.67,0,0,0,.14-1Z" transform="translate(15.54 6.7)"/><path class="cls-3" d="M610.4,185.54v4.08h4.42V192H610.4v9.17c0,2.1.6,3.3,2.31,3.3a5.84,5.84,0,0,0,1.8-.21l.14,2.35a8.49,8.49,0,0,1-2.74.42,4.41,4.41,0,0,1-3.34-1.3c-.84-.95-1.19-2.46-1.19-4.46V192h-2.64v-2.35h2.64v-3.16Z" transform="translate(15.54 6.7)"/><path class="cls-3" d="M627.36,184.84a1.85,1.85,0,0,1-2,1.9,1.82,1.82,0,0,1-1.86-1.9,1.88,1.88,0,0,1,1.93-1.93,1.85,1.85,0,0,1,1.9,1.93m-3.44,4.78H627v17h-3.09Z" transform="translate(15.54 6.7)"/><path class="cls-3" d="M653.13,198c0,6.28-4.39,9-8.46,9-4.57,0-8.15-3.37-8.15-8.74,0-5.66,3.76-9,8.43-9,4.88,0,8.18,3.54,8.18,8.71m-13.45.17c0,3.72,2.11,6.53,5.13,6.53s5.16-2.77,5.16-6.6c0-2.88-1.44-6.49-5.09-6.49s-5.2,3.37-5.2,6.56" transform="translate(15.54 6.7)"/><path class="cls-3" d="M662.65,194.22c0-1.79,0-3.2-.14-4.6h2.74l.17,2.81h.07a6.29,6.29,0,0,1,5.62-3.16c2.35,0,6,1.4,6,7.23v10.11H674v-9.79c0-2.74-1-5-3.93-5A4.47,4.47,0,0,0,666,195a4.52,4.52,0,0,0-.21,1.45v10.21h-3.09Z" transform="translate(15.54 6.7)"/></g></g></g></g></g></g></svg>