<svg viewBox="0 0 157 29" xmlns="http://www.w3.org/2000/svg"><defs><linearGradient x1="-.001%" y1="50%" x2="99.999%" y2="50%" id="a"><stop stop-color="#38748E" offset="15%"/><stop stop-color="#3B96B3" offset="30%"/><stop stop-color="#3B96B3" offset="70%"/><stop stop-color="#38748E" offset="85%"/></linearGradient><linearGradient x1=".006%" y1="50.008%" x2="100.001%" y2="50.008%" id="b"><stop stop-color="#3B96B3" offset="30%"/><stop stop-color="#3B96B3" offset="70%"/><stop stop-color="#38748E" offset="85%"/></linearGradient><linearGradient x1="7.846%" y1="21.074%" x2="92.16%" y2="78.938%" id="c"><stop stop-color="#38748E" offset="15%"/><stop stop-color="#3B96B3" offset="30%"/><stop stop-color="#3B96B3" offset="70%"/></linearGradient><linearGradient x1="-.002%" y1="50.005%" x2="99.994%" y2="50.005%" id="d"><stop stop-color="#78C7E6" offset="40%"/><stop stop-color="#78C7E6" offset="60%"/><stop stop-color="#B5DDEC" offset="100%"/></linearGradient><linearGradient x1="-.001%" y1="50%" x2="100.002%" y2="50%" id="e"><stop stop-color="#B5DDEC" offset="0%"/><stop stop-color="#78C7E6" offset="40%"/><stop stop-color="#78C7E6" offset="60%"/><stop stop-color="#B5DDEC" offset="100%"/></linearGradient><linearGradient x1=".003%" y1="49.999%" x2="100.002%" y2="49.999%" id="f"><stop stop-color="#B5DDEC" offset="0%"/><stop stop-color="#78C7E6" offset="40%"/><stop stop-color="#78C7E6" offset="60%"/></linearGradient></defs><g fill="none" fill-rule="evenodd"><path fill="url(#a)" d="M23.375 17.234l-11.2-10.901H7.621l9.706 10.901 9.708 10.902h7.541z"/><path fill="url(#b)" d="M12.1 22.162H7.545l-6.72-7.915h4.554z"/><path fill="url(#c)" d="M27.109.359h7.541l12.695 13.888h-7.542z"/><path fill="#78C7E6" d="M.823 14.253h4.555l6.719-7.915H7.542z"/><path fill="url(#d)" d="M7.542 6.338L.823 14.253h1.893l6.721-7.915z"/><path fill="#78C7E6" d="M27.031.365l-9.707 10.902-9.706 10.901h4.554l11.201-10.901L34.574.365z"/><path fill="url(#e)" d="M31.38.365h-4.349l-9.707 10.902-9.706 10.901h1.361L20.18 11.267z"/><path fill="#78C7E6" d="M47.342 14.253H39.8L27.106 28.142h7.541z"/><path fill="url(#f)" d="M44.589 14.253L31.896 28.142h2.751l12.695-13.889z"/><g fill-rule="nonzero"><path d="M121.121 4.162v15.963h-1.9V4.162zm3.142 12.061c.187.545.443.998.771 1.364.327.365.712.646 1.151.839.439.193.905.29 1.397.29s.957-.097 1.397-.29a3.347 3.347 0 0 0 1.151-.839c.328-.366.584-.819.771-1.364.187-.543.28-1.166.28-1.866 0-.7-.094-1.323-.28-1.867-.188-.544-.443-1.002-.771-1.375a3.29 3.29 0 0 0-1.151-.85 3.439 3.439 0 0 0-1.397-.291c-.492 0-.958.097-1.397.291a3.28 3.28 0 0 0-1.151.85 4.059 4.059 0 0 0-.771 1.375c-.187.544-.28 1.167-.28 1.867-.001.7.093 1.323.28 1.866zm-1.935-4.247a5.398 5.398 0 0 1 1.074-1.922 5.034 5.034 0 0 1 1.766-1.286c.7-.313 1.506-.47 2.414-.47.925 0 1.733.156 2.426.47a5.08 5.08 0 0 1 1.755 1.286 5.375 5.375 0 0 1 1.073 1.922c.238.737.357 1.531.357 2.381 0 .849-.119 1.64-.357 2.37a5.401 5.401 0 0 1-1.073 1.911 4.954 4.954 0 0 1-1.755 1.274c-.692.305-1.501.459-2.426.459-.908 0-1.714-.154-2.414-.459a4.928 4.928 0 0 1-1.766-1.274 5.404 5.404 0 0 1-1.074-1.911 7.609 7.609 0 0 1-.356-2.37c0-.85.118-1.644.356-2.381zm13.32 4.247c.187.545.443.998.771 1.364.328.365.712.646 1.151.839.44.193.906.29 1.398.29.491 0 .957-.097 1.396-.29a3.36 3.36 0 0 0 1.152-.839c.326-.366.583-.819.77-1.364.187-.543.28-1.166.28-1.866 0-.7-.094-1.323-.28-1.867a4.04 4.04 0 0 0-.77-1.375 3.302 3.302 0 0 0-1.152-.85 3.434 3.434 0 0 0-1.396-.291c-.492 0-.958.097-1.398.291a3.29 3.29 0 0 0-1.151.85 4.059 4.059 0 0 0-.771 1.375c-.188.544-.279 1.167-.279 1.867s.092 1.323.279 1.866zm-1.934-4.247a5.412 5.412 0 0 1 1.073-1.922 5.056 5.056 0 0 1 1.767-1.286c.7-.313 1.505-.47 2.415-.47.924 0 1.732.156 2.424.47a5.075 5.075 0 0 1 1.756 1.286 5.39 5.39 0 0 1 1.073 1.922c.237.738.357 1.531.357 2.381 0 .849-.12 1.64-.357 2.37a5.417 5.417 0 0 1-1.073 1.911 4.94 4.94 0 0 1-1.756 1.274c-.691.305-1.5.459-2.424.459-.91 0-1.715-.154-2.415-.459a4.95 4.95 0 0 1-1.767-1.274 5.417 5.417 0 0 1-1.073-1.911 7.638 7.638 0 0 1-.356-2.37 7.707 7.707 0 0 1 .356-2.381zm13.577-3.41v1.565h.045a2.838 2.838 0 0 1 1.476-1.397 5.518 5.518 0 0 1 2.213-.436c.895 0 1.673.164 2.337.492a4.764 4.764 0 0 1 1.654 1.33 5.89 5.89 0 0 1 .994 1.934c.224.73.335 1.505.335 2.325 0 .82-.107 1.595-.324 2.324a5.488 5.488 0 0 1-.983 1.912 4.61 4.61 0 0 1-1.654 1.285c-.663.312-1.436.471-2.313.471-.283 0-.6-.031-.95-.09a5.28 5.28 0 0 1-1.039-.291 4.078 4.078 0 0 1-.973-.547 3.04 3.04 0 0 1-.771-.861h-.045v5.947h-1.9V8.566h1.898zm6.83 4.103a4.242 4.242 0 0 0-.648-1.375 3.176 3.176 0 0 0-1.118-.961c-.455-.238-.987-.357-1.599-.357-.641 0-1.185.127-1.632.38a3.254 3.254 0 0 0-1.095.995c-.284.41-.488.876-.615 1.397a6.729 6.729 0 0 0 .012 3.229c.134.53.347.996.636 1.398.292.402.668.726 1.13.973.462.246 1.021.368 1.677.368.656 0 1.204-.126 1.643-.38a3.067 3.067 0 0 0 1.062-1.006c.27-.417.462-.895.582-1.432.119-.536.18-1.087.18-1.654a6.013 6.013 0 0 0-.215-1.575z" fill="#3D9BBC"/><g fill="#20718F"><path d="M58.835 8.513v11.558H55.66V8.513zm4.224 0v1.609h.067c.402-.67.924-1.159 1.565-1.464a4.534 4.534 0 0 1 1.967-.458c.85 0 1.546.115 2.09.346.544.231.973.552 1.286.961.312.41.532.909.659 1.498.126.589.19 1.241.19 1.956v7.109h-3.174v-6.528c0-.954-.149-1.666-.447-2.136-.298-.469-.827-.704-1.587-.704-.864 0-1.49.257-1.877.771-.388.514-.582 1.36-.582 2.537v6.059h-3.175V8.513h3.018zm8.287 2.124V8.513h1.9v-.895c0-1.028.321-1.87.962-2.526.64-.655 1.609-.983 2.906-.983.283 0 .566.011.85.034.283.022.559.041.827.056v2.37a9.94 9.94 0 0 0-1.163-.067c-.432 0-.741.101-.928.302-.187.201-.279.541-.279 1.018v.693h2.191v2.124h-2.191v9.435h-3.175v-9.435h-1.9v-.002zm11.188-2.124v11.558H79.36V8.513zm4.223 0v1.609h.068c.402-.67.924-1.159 1.564-1.464a4.535 4.535 0 0 1 1.968-.458c.85 0 1.545.115 2.091.346.543.231.973.552 1.285.961.312.41.532.909.66 1.498.125.589.189 1.241.189 1.956v7.109h-3.176v-6.528c0-.954-.148-1.666-.447-2.136-.298-.469-.826-.704-1.587-.704-.864 0-1.489.257-1.877.771-.388.514-.582 1.36-.582 2.537v6.059h-3.174V8.513h3.018zm12.025 0v11.558h-3.175V8.513zm8.126-.09v2.124h-2.326v5.722c0 .537.091.895.269 1.074.18.178.537.268 1.073.268.18 0 .351-.007.515-.021.164-.016.32-.037.47-.068v2.46a7.958 7.958 0 0 1-.894.09c-.33.015-.65.022-.963.022-.49 0-.957-.034-1.396-.102a3.262 3.262 0 0 1-1.162-.391 2.058 2.058 0 0 1-.794-.828c-.194-.356-.29-.826-.29-1.408v-6.818h-1.924V8.423h1.924V4.958h3.173v3.465h2.325z"/><path d="M114.447 10.947c-.379-.417-.957-.626-1.732-.626-.507 0-.928.086-1.263.257a2.396 2.396 0 0 0-.805.637 2.3 2.3 0 0 0-.425.804 3.6 3.6 0 0 0-.146.761h5.163c-.147-.804-.411-1.415-.792-1.833zm-3.588 6.081c.477.462 1.163.693 2.057.693.641 0 1.192-.161 1.655-.481.461-.32.744-.658.849-1.017h2.795c-.447 1.386-1.132 2.377-2.057 2.974-.925.596-2.042.894-3.354.894-.909 0-1.729-.146-2.459-.436a5.11 5.11 0 0 1-1.856-1.241 5.592 5.592 0 0 1-1.173-1.922c-.276-.746-.414-1.565-.414-2.46 0-.864.142-1.669.425-2.415a5.684 5.684 0 0 1 1.206-1.933 5.691 5.691 0 0 1 1.868-1.286c.722-.313 1.523-.47 2.403-.47.983 0 1.84.19 2.57.57.729.38 1.33.891 1.8 1.532.47.64.809 1.371 1.018 2.19.208.82.282 1.677.223 2.571h-8.338c.045 1.029.305 1.775.782 2.237z"/></g></g></g></svg>