<svg version="1.1" id="Layer_1" xmlns="http://www.w3.org/2000/svg" x="0" y="0" width="500" height="127" viewBox="0 0 102 28" xml:space="preserve"><style type="text/css">.st0{fill:#0095de}</style><path class="st0" d="M0 15.64c.4-.27.37-.75.53-1.13 1.3-3.17 4.6-5.03 7.98-4.53 3.26.52 5.78 3.15 6.15 6.43.32 3.42-1.82 6.6-5.12 7.58-.25.09-.49.19-.81.31 3.93 1.21 5.52 1.31 8.07.65-.47 1.09-.29 2.34-1.42 3.05h-2.82c-2.23-.74-4.45-1.49-6.85-1.03-.23.05-.53.16-.65-.12-.28-.62-.44-1.28-.47-1.96 0-.48.81-.35 1.31-.65a7.662 7.662 0 0 1-5.7-5.4c0-.05-.12-.08-.19-.12v-3.08zm11.68 1.47c.03-2.41-1.86-4.4-4.27-4.49a4.461 4.461 0 0 0-4.32 4.58 4.377 4.377 0 0 0 4.34 4.41 4.359 4.359 0 0 0 4.25-4.47v-.03zm23.03 6.03c-2 1.48-3.81 1.6-5.45.41a3.477 3.477 0 0 1-1.1-4.13 3.288 3.288 0 0 1 3.59-1.74c.61.17 1.26.14 1.85-.1.32-.18 1.02.22.97-.53.02-.62-.41-1.17-1.02-1.31a3.75 3.75 0 0 0-3.07.49c-1.31.81-1.4-.48-1.83-1.03-.65-.83.36-.86.71-1.05a7.246 7.246 0 0 1 5.49-.65 3.27 3.27 0 0 1 2.62 2.86c.35 2.44.08 4.88.16 7.32 0 .35-.14.5-.49.49h-1.89c-.76 0-.27-.66-.54-1.03zm-1.44-3.49h-.81c-.79.04-1.63.18-1.57 1.19s.96 1.13 1.78 1.1c.28-.01.55-.09.79-.21.65-.33 1.22-.86 1.06-1.66s-.9-.24-1.25-.42zm17.71 3.44a4.069 4.069 0 0 1-5.02.71 3.413 3.413 0 0 1-1.61-4.25c.65-1.43 2.23-2.2 3.76-1.82.84.16 1.61-.25 2.43-.26.4 0 .33-.33.26-.65a1.44 1.44 0 0 0-1.44-1.17c-.95-.08-1.91.15-2.72.65-1.31.79-1.31-.58-1.71-1.07-.62-.7.28-.83.62-1.01 1.7-.96 3.71-1.22 5.59-.73a3.35 3.35 0 0 1 2.67 3.33c.06 2.21 0 4.41.05 6.62 0 .54-.12.81-.71.74-.31-.04-.63-.04-.94 0-.76.13-1.29-.02-1.23-1.09zm-1.52-3.47c-.42 0-.78 0-1.13.06-.65.08-1.15.37-1.15 1.1 0 .73.5 1 1.15 1.12.44.08.89.04 1.31-.12.77-.19 1.29-.9 1.23-1.68-.14-.92-1.01-.24-1.41-.48zm24.55-.78a5.682 5.682 0 0 1-5.57 5.81 5.682 5.682 0 0 1-5.81-5.57 5.682 5.682 0 0 1 5.57-5.81h.17a5.516 5.516 0 0 1 5.64 5.57zm-5.63-2.98c-1.61 0-2.68 1.15-2.7 2.92-.02 1.77 1.03 3 2.62 3.01 1.59.01 2.69-1.17 2.7-2.93.01-1.76-1.08-2.99-2.65-3.01l.03.01zm6.69 2.95a5.45 5.45 0 0 1 5.36-5.54h.3c3.07 0 5.57 2.49 5.57 5.57s-2.49 5.57-5.57 5.57a5.497 5.497 0 0 1-5.66-5.33c-.01-.09-.01-.18 0-.27zm8.31.09c0-1.76-1.07-3.01-2.62-3.04-1.55-.03-2.72 1.16-2.76 2.89s1.06 3 2.62 3.04c1.5.03 2.73-1.16 2.76-2.66.01-.07 0-.15 0-.23zm-60.09 3.83c-1.31 1.42-2.59 1.85-4.11 1.49-1.81-.37-3.1-2-3.04-3.85-.06-2.05 0-4.11 0-6.16 0-.65.29-.75.84-.76 2.21-.05 2.21-.07 2.21 2.12v4.03c.04 1.46.65 2.17 1.77 2.19 1.19.02 2.17-.93 2.19-2.12v-.03c.08-1.66.09-3.32 0-4.97-.05-1 .24-1.37 1.22-1.21.35.04.71.04 1.06 0 .48-.03.72.09.71.65v9.48c0 .45-.14.65-.61.62a5.74 5.74 0 0 0-1.31 0c-.84.13-1.22-.18-.93-1.48zm35.45-7.92c.71-.66 1.56-1.15 2.48-1.43.18-.05.5-.13.55-.06.47.71.15 1.51.22 2.28.05.45-.28.46-.62.51-1.73.26-2.48 1.09-2.57 2.93-.07 1.41-.07 2.84 0 4.26 0 .75-.23.91-.94.91-2.06 0-2.06 0-2.06-2.02 0-2.56.03-5.13 0-7.69 0-.83.2-1.17 1.04-1.04.27.04.55.04.83 0 .88-.15 1.28.2 1.07 1.35zm-16.28 2.4c0 2.01-.03 4.02 0 6.03 0 .77-.2.99-.97.98-1.96-.03-1.96 0-1.96-1.96V11.27c0-.92.22-1.31 1.16-1.15.31.04.63.04.94 0 .65-.08.88.15.86.84-.06 2.07-.03 4.16-.03 6.25zm59.34-8.44c-1.06.11-2.05-.55-2.37-1.57-.52-1.36-1.24-1.66-2.49-.88-2.36 1.49-4.58 1.22-6.92-.09-1.49-.96-3.06-1.79-4.7-2.47a7.795 7.795 0 0 0-7.62 1.03c-1.53 1.12-3.03 2.29-4.62 3.27-2.73 1.82-6.06 2.5-9.28 1.89-3.59-.65-5.55-3.13-6.89-6.47.5.04.95.34 1.19.79 1.37 1.6 3.23 2.7 5.3 3.12 2.88.7 5.67-.09 8.16-1.68 1.59-1.02 3.11-2.15 4.69-3.2 3.82-2.54 7.86-2.46 11.59.19 1.26 1.02 2.64 1.88 4.11 2.55 1.05.41 2.12.65 3.15-.08.54-.39.83-.7 0-1.18-.9-.52-1.56-1.39-1.82-2.4C93 .54 93.27.31 94.31.56c1.4.33 2.61 1.21 3.37 2.43.2.31.32.68.66.8 1.86.76 2.74 2.29 3.18 4.14.04.16.06.31.24.37l.04.47zM96.82 0c-.07.58.52.72.76 1.09.38.41.5 1 .31 1.53-.3-1.24-1.61-1.42-1.54-2.62h.47z"/><path class="st0" d="M99.36 9.41c-.28.16-.53 0-.8-.05-1.1-.3-2.26.06-3 .93-.82 1-2.08 1.52-3.37 1.38-.39-.03-.79-.03-1.19 0-1.31.12-1.72.82-1.09 2.02.26.49.57.94.83 1.43.46.84.53 1.85.19 2.74-.16.41-.28 1.07-.81.98-.41-.07-.16-.65-.18-1.05a3.69 3.69 0 0 0-.5-1.68c-.22-.36-.47-.71-.73-1.05-.78-1.03-1.55-2.1-.92-3.45S89.75 9.95 91.1 10c1.46.11 2.91-.3 4.09-1.17 1.31-.97 3.17-.72 4.17.58z"/></svg>