<svg preserveAspectRatio="xMidYMid meet" id="Layer_1" xmlns="http://www.w3.org/2000/svg" viewBox="0 0 205.1 51.2">
  <style>
    .st0{fill-rule:evenodd;clip-rule:evenodd;fill:#231F20;} .st1{fill:#231F20;}
  </style>
  <path class="st0" d="M16.9 1.5c-2.3.8-4.2 1.9-6 3.2-3.6 2.6-6.4 5.8-8.4 9.9-1 2-1.8 4.5-2.2 7-.4 2.7-.4 5.7.1 8.5.8 5 3.1 9.3 5.9 12.4 4.2 4.7 10.2 8.5 18.7 8.8 3 .1 5.7-.4 8.1-1.1C40 48.1 45 43.7 48.2 37.9c.5-.9 1.3-2 1.3-3.3 0-1.4-.8-2.3-1.9-2.7-1.3-.4-2.3.2-2.8 1-.3.5-.5 1-.7 1.5-.2.5-.5 1-.8 1.5-2.8 4.7-7.1 8.3-13.3 9.6-2.6.6-5.7.6-8.3 0-5-1-8.6-3.5-11.5-6.9-2.7-3.2-4.8-7.7-4.7-13.6.1-5.7 2.4-9.8 5.3-13 2.9-3.2 6.8-5.6 11.9-6.4 3.5-.5 7.4.1 10 1 .6.2 1 .5 1.6.7 1.4.3 2.5-.5 2.9-1.5.5-1.4-.2-2.7-1-3.3-.4-.3-1-.5-1.6-.7-2.8-1-6-1.8-9.9-1.6-2.9 0-5.5.5-7.8 1.3zM33.5 14c.3-.7.8-1.5.9-2.2.3-1.8-.9-3.3-2.6-3.2-1.8.1-2.3 1.6-2.9 3-1.6 3.8-3.4 8-5 11.7-1.2.4-2.3.9-3.6 1.4-1.2.5-2.3 1.1-2.5 2.5-.2 1.7 1 2.8 2.6 2.8 1 0 1.9-.5 2.7-.9.9-.4 1.8-.7 2.6-1 3.9 1.7 8.2 3.5 12.1 5.2.6.3 1.2.6 1.9.6 1.5.1 2.7-.9 2.8-2.2.1-1.3-.5-2.1-1.2-2.6-.6-.4-1.4-.7-2.1-1-2.2-.9-4.4-1.8-6.5-2.8 4.6-1.8 9.2-3.6 13.7-5.5.7-.3 1.4-.5 1.9-.9.9-.6 1.3-1.8 1-2.9-.3-1-1.2-1.8-2.5-1.8-1 0-1.8.5-2.7.9l-13.5 5.4c1.1-2.1 2-4.4 2.9-6.5z"/>
  <path class="st0" d="M24.6 0c3.9-.2 7.1.6 9.9 1.6.6.2 1.1.4 1.6.7.8.6 1.5 1.9 1 3.3-.4 1-1.5 1.9-2.9 1.5-.6-.1-1.1-.5-1.6-.7-2.6-.9-6.5-1.5-10-1-5.1.8-9 3.2-11.9 6.4-2.9 3.2-5.2 7.4-5.3 13-.1 6 2 10.4 4.7 13.6 2.9 3.4 6.5 5.8 11.5 6.9 2.6.5 5.7.5 8.3 0 6.2-1.3 10.5-4.9 13.3-9.6.3-.5.6-1 .8-1.5.2-.5.4-1.1.7-1.5.5-.8 1.5-1.4 2.8-1 1.1.3 1.9 1.3 1.9 2.7 0 1.3-.8 2.4-1.3 3.3C44.9 43.6 39.9 48 33 50.1c-2.4.7-5.1 1.2-8.1 1.1-8.5-.3-14.5-4.1-18.7-8.8C3.5 39.3 1.2 35 .4 30c-.5-2.8-.5-5.7-.1-8.5.4-2.5 1.2-4.9 2.2-7 2-4.1 4.8-7.3 8.4-9.9 1.7-1.2 3.7-2.4 6-3.2C19.2.7 21.8.2 24.6 0z"/>
  <path class="st0" d="M30.7 20.5c4.4-1.8 9-3.6 13.5-5.4.8-.3 1.6-.9 2.7-.9 1.3 0 2.1.7 2.5 1.8.4 1.1-.1 2.3-1 2.9-.5.4-1.3.6-1.9.9-4.6 1.8-9.2 3.7-13.7 5.5 2.1 1 4.3 1.9 6.5 2.8.7.3 1.5.6 2.1 1 .7.5 1.4 1.3 1.2 2.6-.1 1.3-1.3 2.3-2.8 2.2-.6 0-1.2-.4-1.9-.6-3.9-1.7-8.2-3.5-12.1-5.2-.8.3-1.7.7-2.6 1-.9.3-1.7.9-2.7.9-1.6 0-2.8-1.1-2.6-2.8.1-1.5 1.3-2.1 2.5-2.5 1.2-.5 2.4-1 3.6-1.4 1.6-3.6 3.3-7.8 5-11.7.6-1.4 1.1-2.9 2.9-3 1.7-.1 2.9 1.3 2.6 3.2-.1.7-.6 1.5-.9 2.2-1 2.1-1.9 4.4-2.9 6.5z"/>
  <g>
    <path class="st1" d="M78.3 27.5H66.1l-4.2 10.6h-2.3L71.6 8H73l11.8 30.1h-2.4l-4.1-10.6zm-11.5-1.9h10.7l-4.1-10.8c-.3-.8-.8-2-1.2-3.5-.4 1.3-.8 2.5-1.2 3.6l-4.2 10.7zM88.2 9.6c0-1.3.4-2 1.3-2 .4 0 .8.2 1 .5.2.3.4.8.4 1.5 0 .6-.1 1.1-.4 1.5-.2.4-.6.5-1 .5-.8 0-1.3-.7-1.3-2zm2.4 28.5h-2V15.8h2v22.3zM106.8 15.3c.9 0 2 .1 3 .3l-.4 1.9c-.9-.2-1.9-.3-2.9-.3-1.9 0-3.5.8-4.7 2.4-1.2 1.6-1.8 3.7-1.8 6.1V38h-2V15.8h1.7l.2 4h.1c.9-1.6 1.9-2.8 2.9-3.5 1.2-.6 2.4-1 3.9-1zM139 38.1h-6.3v-13h-11.9V38h-6.4V8h6.4v11.8h11.9V8.1h6.3v30zM156.4 38.5c-3.7 0-6.6-1-8.7-3.1-2.1-2-3.1-4.9-3.1-8.7 0-3.8 1-6.8 2.9-8.9 1.9-2.1 4.6-3.1 8-3.1 3.2 0 5.8.9 7.6 2.8 1.8 1.8 2.7 4.4 2.7 7.6v3H151c.1 1.8.6 3.2 1.6 4.2s2.4 1.5 4.1 1.5c1.4 0 2.7-.1 3.9-.4s2.5-.7 3.9-1.4v4.8c-1.1.5-2.3 1-3.5 1.2-1.3.3-2.8.5-4.6.5zm-.9-19.3c-1.3 0-2.4.4-3.1 1.3-.8.8-1.2 2-1.3 3.6h8.8c0-1.5-.4-2.7-1.2-3.6-.8-.9-1.8-1.3-3.2-1.3zM177.1 38.1h-6.3V6.2h6.3v31.9zM196.3 38.5c-2.7 0-4.8-1-6.3-2.9h-.3c.2 1.9.3 3 .3 3.3v9.3h-6.3v-33h5.1l.9 3h.3c1.5-2.3 3.6-3.4 6.5-3.4 2.7 0 4.8 1 6.4 3.1 1.5 2.1 2.3 5 2.3 8.7 0 2.4-.4 4.6-1.1 6.4-.7 1.8-1.7 3.2-3.1 4.1-1.4.9-2.9 1.4-4.7 1.4zm-1.9-18.8c-1.5 0-2.7.5-3.4 1.4-.7 1-1.1 2.5-1.1 4.7v.7c0 2.5.4 4.2 1.1 5.3.7 1.1 1.9 1.6 3.5 1.6 2.8 0 4.2-2.3 4.2-6.9 0-2.3-.3-3.9-1-5.1-.7-1.1-1.8-1.7-3.3-1.7z"/>
  </g>
</svg>
