<svg id="Layer_1" xmlns="http://www.w3.org/2000/svg" viewBox="0 0 382.1 82.6"><style>.st0,.st1{fill:#414042}.st1{fill-rule:evenodd;clip-rule:evenodd}</style><path class="st0" d="M197.3 25.6l6.1.1c2.6 0 4.5.2 5.7.5 1.2.3 2.3.9 3.1 1.7 1.1 1 1.8 2.4 2.1 4.1.4 1.7.5 4.3.5 8 0 3.6-.1 5.9-.3 7.1-.5 3.2-1.8 5.4-4 6.6-1.9 1.1-6.8 1.6-14.5 1.5-3.1 0-5.7-.2-7.5-.4-2.3-.3-4.1-1-5.4-2-1.2-1.1-2.1-2.7-2.5-4.9-.2-1.2-.4-3.4-.3-6.5 0-4.7.2-7.9.6-9.6.3-1.7 1.1-3.1 2.2-4.1 1.5-1.4 4.4-2.1 8.6-2l5.6-.1zm3.3 7.1c-5.4-.1-8.5 0-9.4.2-1.2.2-1.9.8-2.4 1.7-.4.9-.6 2.5-.7 4.9 0 3.1.1 5.2.5 6.2.3 1 1.1 1.6 2.2 1.9.9.2 2.6.3 5 .4 3.3 0 5.5 0 6.8-.1 1.2-.1 2.2-.3 2.8-.7.6-.3 1.1-1 1.3-2 .2-1 .4-2.7.4-5.2 0-2.9-.2-4.8-.7-5.7-.3-.6-.9-1-1.7-1.2-.8-.2-2.2-.4-4.1-.4zm26.6-4.8l-.2 20.2 15.7.1c.9.1 1.5.9 1.4 1.9v4.2c0 .6-.7 1.1-1.2 1.2l-18.4-.2c-3.5 0-5.2-.4-5.1-3.9l.1-21.4v-1.9c0-.4.5-1.8 1.2-1.7h4.5c1.1.1 1.9.6 2 1.5zm88.9 25.3l.2-22.6c0-3.3.8-3.2 4.2-3.2l14.9.1c2.5 0 4.5.3 5.9.9 1.4.5 2.5 1.5 3.3 2.7 1.3 2 1.9 5.5 1.8 10.5 0 5-.7 8.5-2 10.5-.8 1.3-1.9 2.2-3.4 2.7-1.4.5-3.4.8-5.9.7l-16.4-.2c-2.2.1-2.6-.1-2.6-2.1zm2.9-.6l16.3.2c3.2 0 5.3-.7 6.3-2.2 1.1-1.5 1.6-4.5 1.7-9 0-4.5-.5-7.5-1.5-9-1.1-1.5-3.2-2.2-6.5-2.2l-16.1-.2-.2 22.4zm-23.8-26.2c5.5.1 9.1.3 10.9.6 1.7.4 3.1 1.2 4.1 2.6.7 1 1.2 2.3 1.4 3.9.2 1.6.3 4.4.3 8.2 0 3.9-.2 6.6-.4 8.2-.2 1.6-.7 2.9-1.5 3.9-1 1.3-2.4 2.2-4.1 2.5-1.8.3-5.4.5-10.9.4-5.5-.1-9.1-.3-10.9-.6-1.7-.4-3.1-1.2-4.1-2.6-.7-1-1.2-2.3-1.4-3.9-.2-1.6-.3-4.4-.3-8.3 0-3.9.2-6.6.4-8.2.2-1.6.7-2.9 1.5-3.9 1-1.3 2.4-2.2 4.1-2.5 1.8-.3 5.4-.4 10.9-.3zm0 3.1c-4.6 0-7.6.1-9.2.3-1.5.2-2.6.8-3.2 1.7-.5.7-.8 1.7-.9 3.1-.2 1.4-.3 3.7-.3 6.9s0 5.5.2 6.9c.1 1.4.4 2.4.9 3.1.6.9 1.7 1.5 3.1 1.8 1.4.3 4.5.4 9.3.4 4.7 0 7.8 0 9.3-.3 1.4-.2 2.5-.8 3.1-1.7.5-.7.8-1.7.9-3.1.2-1.4.3-3.7.3-6.9s0-5.5-.2-6.9c-.1-1.4-.4-2.4-.9-3.1-.6-.9-1.7-1.5-3.2-1.7-1.6-.3-4.6-.5-9.2-.5z"/><path class="st1" d="M263 25.4c4.5 0 8.4 1.7 11.3 4.4.3.3.3.5.1.8l-1.5 1.8c-.2.3-.3.1-.6-.2-2.4-2.4-5.6-3.8-9.4-3.8-.7 0-1.4 0-2 .1-6.3.9-11.2 6-11.3 12.2-.1 6.3 4.8 11.6 11.2 12.5.6.1 1.2.1 1.9.1 3.3 0 6.1-.9 8.4-2.8.6-.4.7-.6 1.1 0l1 1.2c.6.7.5.7-.3 1.3-2.8 2.1-6.4 3.3-10.3 3.3-.7 0-1.4-.1-2-.1-8.1-1-14.3-7.6-14.2-15.5.1-8 6.6-14.5 14.8-15.3h1.8zm105.1 1c4.6 0 8.8 1.9 11.7 4.8 1.4 2.1 4.1 4.8.6 6.4l-21.2 9.7-2.4 1-.9.4c2.1 3 5.7 5.1 9.7 5.5.4 0 1.8.1 2.2.1 3.2 0 6-.9 8.4-2.7.7-.6.8-.6 1.4.1l.7.9c.7.8.4 1-.6 1.7-2.8 2-6.1 3-9.9 3-.4 0-1.9 0-2.3-.1-8.5-.7-15.1-7.4-15-15.6.1-8 6.5-14.5 14.7-15.3.6.1 2.3.1 2.9.1zm9.3 6.8c-2.4-2.3-5.7-3.8-9.4-3.8h-2.5c-6.6.6-11.9 5.9-11.9 12.3 0 1.7.3 3.3 1 4.8l1.6-.7 2.7-1.2 19.6-8.8c.4-.2.4-.5.2-.9-.4-.7-.7-1.1-1.3-1.7z"/><path class="st0" d="M246.8 78.6l.1-9.2h4c4 0 5.9 1.5 5.9 4.5 0 1.4-.6 2.6-1.7 3.4-1.1.8-2.5 1.3-4.3 1.2l-4 .1zm2.6-7.5l-.1 5.8h1.2c1.1 0 1.9-.3 2.6-.8.6-.5.9-1.3.9-2.2 0-.9-.3-1.6-.9-2.1-.6-.5-1.5-.8-2.6-.8l-1.1.1zm24.1 7.7l-6.7-.1.1-9.2 6.4.1v1.7h-3.9v2h3.6V75h-3.6v2.1h4.2l-.1 1.7zm19.4-8.9L289 79h-2.8l-3.7-9.2h2.7l2.3 6.4c.1.3.2.6.2.9 0-.3.1-.6.3-.9l2.4-6.3h2.5zm26.1 1.9h-3.2l-.1 7.5h-2.5l.1-7.5h-3.2v-1.7l8.9.1v1.6zm16.3 7.6l-6.7-.1.1-9.2 6.4.1v1.7h-3.9v2h3.6v1.7h-3.6v2.1h4.2l-.1 1.7zm19.8.2h-2.7l-.8-2h-4l-.8 2h-2.7l4.1-9.1h3l3.9 9.1zm-4.1-3.7l-1.2-3.1c-.1-.2-.1-.5-.2-.8h-.1c0 .3-.1.5-.2.8l-1.2 3.1h2.9zm26.4 3.9h-2.5l.1-5.5c0-.6 0-1.2.1-2h-.1c-.1.6-.3 1-.4 1.2l-2.7 6.2h-2.1l-2.6-6.2c-.1-.2-.2-.6-.3-1.3h-.1c.1.9.1 1.7.1 2.4v5.1h-2.3l.1-9.2h3.7l2.2 5.5c.2.4.3.9.4 1.3.1-.5.3-.9.5-1.3l2.3-5.4h3.6v9.2zM144.9 53l.2-25.1c0-2 1.5-2.9 3.3-2.9l12.8.1c8.9.1 15.2 1.7 15.1 11.9-.1 7.2-2.4 8.9-9.2 10.9-5.3 1.6-12.7 2.9-14.4 3.1v1.7c0 1.2-.8 2-2.1 2H146c-.6.1-1.1-1.3-1.1-1.7zm8-9.1c1.6-.2 8.9-2.1 12.7-3.4 2.4-.8 2.9-1.2 2.9-4 0-1.5-.2-2.6-.7-3.2-.5-.6-1.4-.9-2.6-.9h-.8l-11.4-.1-.1 11.6z"/><path class="st1" d="M122.9 70.7c-7.6 8-19.5 11.9-32.3 11.9-12.2 0-22.6-3.5-30.1-10.8-.6-.5-.2-.9.3-1.5 3.2-4.1 5.2-7.6 6.6-12.6.3-1 .6-1.6 1.1-.7 3.9 7.5 12.2 11.6 22.3 11.6 9.6 0 16.6-2.6 21.4-9.2 2.2-3 4-2.5 6.5.2l4.2 4.6c2.6 2.8 3 3.4 0 6.5z"/><path d="M120.8 14.8l-3.1 2.5c-4.2 3.3-5.2 4.5-9.1 1.9-4.2-2.8-9.1-3.3-14.8-3.3-9.7 0-18 3.9-22.2 11-.5.8-.4.3-.7-.6-.7-2.8-2.2-6.6-3.1-8.7-.8-1.6-2.4-4.4-3.6-6.2-.4-.6-.6-.6-.1-1C71.6 3.9 81.4.6 92.8.6c10.5 0 19.1 1.6 26.4 7.2 3.1 2.2 5.3 4 1.6 7z" fill-rule="evenodd" clip-rule="evenodd" fill="#6f2c91"/><path class="st1" d="M30.6 1.1c19.2 3 33.8 17.9 33.8 36.7 0 20.9-18.2 37.9-40.6 37.9h-1l-6.8-.4v4.6c0 1.2-1.1 2.3-2.4 2.3H3.2c-1.3 0-2.4-1-2.4-2.3V62.8c0-1.2 1.1-2.3 2.4-2.3h20.1c9.4 0 17.5-4.7 21.8-11.7 2-3.3 3.1-7 3.1-11 0-2.5-.4-4.9-1.2-7.1-3-8.5-11.4-14-21.4-14.8-3.8-.3-5.9-.7-14.2-1-1.8-.1-2.5-.4-3.4-1.8L.5 2.3C-.7.6.2.5 2.2.3 3.6.2 4.9.1 6 .1c7.3-.2 17.6-.1 24.6 1z"/></svg>