<svg width="189" height="47" viewBox="0 0 189 47" fill="none" xmlns="http://www.w3.org/2000/svg">
<path d="M7.55778 3.4402C7.55778 5.50092 5.95305 6.8804 3.77889 6.8804C1.62199 6.8804 0 5.50092 0 3.4402C0 1.37949 1.60473 0 3.77889 0C5.93579 0 7.55778 1.37949 7.55778 3.4402ZM0.759229 28.6967V9.38392H6.79855V28.6967H0.759229Z" fill="#FF4040"/>
<path d="M23.3118 28.6967V15.0892H17.1172V28.6967H11.0606V9.3839H29.3511V28.6967H23.3118Z" fill="#FF4040"/>
<path d="M35.5458 14.987H32.1983V9.36689H35.5458V1.63495H47.5037V7.25508H41.6024V9.36689H47.5037V14.987H41.6024V28.6797H35.5458V14.987Z" fill="#FF4040"/>
<path d="M70.1079 19.0403C70.1079 24.8648 65.5871 29.1566 59.8583 29.1566C54.1296 29.1566 49.6087 24.8308 49.6087 19.0403C49.6087 13.2158 54.1986 8.92407 59.8583 8.92407C65.518 8.92407 70.1079 13.1988 70.1079 19.0403ZM55.7344 19.0403C55.7344 21.7482 57.5461 23.4683 59.8583 23.4683C62.205 23.4683 63.9823 21.7482 63.9823 19.0403C63.9823 16.3665 62.205 14.6123 59.8583 14.6294C57.5289 14.6123 55.7344 16.3665 55.7344 19.0403Z" fill="#FF4040"/>
<path d="M125.704 9.38393V28.6968H119.648V15.0892H113.315V28.6968H107.276V1.65199H113.315V9.38393H125.704Z" fill="#FF4040"/>
<path d="M143.633 11.5638V9.3839H149.689V28.6967H143.633V26.619C142.373 28.1347 140.561 29.1566 138.076 29.1566C133.09 29.1566 129.259 25.0181 129.259 19.0403C129.259 13.0285 133.176 8.92407 138.042 8.92407C140.544 8.92407 142.373 9.99701 143.633 11.5638ZM135.385 19.0403C135.385 21.7482 137.196 23.4683 139.509 23.4683C141.855 23.4683 143.633 21.7482 143.633 19.0403C143.633 16.3665 141.855 14.6123 139.509 14.6294C137.162 14.6123 135.385 16.3665 135.385 19.0403Z" fill="#FF4040"/>
<path d="M159.99 15.0722V28.6797H153.951V9.3839H166.651V15.0892H159.99V15.0722Z" fill="#FF4040"/>
<path d="M178.885 8.92407C183.906 8.92407 188.272 12.194 188.927 17.4735C189.066 18.6486 188.979 19.5001 188.893 20.1814H174.933C175.141 22.6338 176.78 24.0984 179.092 24.0984C180.8 24.0984 182.336 23.298 182.698 21.6119H188.927C188.168 26.4146 183.837 29.1566 179.058 29.1566C173.053 29.1566 168.773 24.7626 168.773 19.0573C168.773 13.318 173.087 8.92407 178.885 8.92407ZM175.365 16.2473H182.543C182.043 14.4591 180.421 13.8119 178.988 13.8119C177.297 13.7949 176.021 14.6975 175.365 16.2473Z" fill="#FF4040"/>
<path d="M79.7191 16.3154H103.014V28.6968H73.6625V23.9452H98.2167V21.3906H73.6625V9.36691H103.014V14.1015H79.7191V16.3154Z" fill="#FF4040"/>
<path d="M89.1823 36.2L86.0883 37.404V38.958L88.3143 38.048V46H89.8963V36.2H89.1823Z" fill="#FF4040"/>
<path d="M99.525 42.262H98.111V36.2H95.759L91.475 42.262V43.76L96.529 43.746V46H98.111V43.746H99.525V42.262ZM93.197 42.262L96.403 37.67H96.529V42.262H93.197Z" fill="#FF4040"/>
<path d="M105.709 41.058H101.089V42.57H105.709V41.058Z" fill="#FF4040"/>
<path d="M110.374 36.2L107.28 37.404V38.958L109.506 38.048V46H111.088V36.2H110.374Z" fill="#FF4040"/>
<path d="M116.978 39.476C116.138 39.476 115.522 39.714 115.032 40.092L115.536 37.712H119.82V36.2H114.346L113.142 41.828H114.654C115.018 41.24 115.662 40.792 116.642 40.792C117.818 40.792 118.672 41.534 118.672 42.696C118.672 43.816 117.846 44.67 116.614 44.67C115.536 44.67 114.626 44.11 114.402 42.99H112.806C113.03 45.118 114.752 46.168 116.628 46.168C118.7 46.168 120.282 44.796 120.282 42.71C120.282 40.68 118.77 39.476 116.978 39.476Z" fill="#FF4040"/>
<path d="M130.853 36.032C127.983 36.032 125.771 38.216 125.771 41.1C125.771 43.984 127.983 46.168 130.853 46.168C133.723 46.168 135.921 43.984 135.935 41.1C135.921 38.216 133.723 36.032 130.853 36.032ZM130.853 37.544C132.827 37.544 134.325 39.056 134.325 41.1C134.325 43.144 132.827 44.656 130.853 44.656C128.865 44.656 127.367 43.144 127.367 41.1C127.367 39.056 128.865 37.544 130.853 37.544Z" fill="#FF4040"/>
<path d="M141.312 46.168C143.118 46.168 144.742 45.09 145.106 43.186H143.468C143.174 44.138 142.32 44.698 141.312 44.698C139.926 44.698 138.918 43.648 138.918 42.15C138.918 40.666 139.898 39.602 141.326 39.602C142.32 39.602 143.174 40.134 143.468 41.1H145.106C144.756 39.238 143.146 38.132 141.326 38.132C139.03 38.132 137.322 39.854 137.322 42.15C137.322 44.446 139.03 46.168 141.312 46.168Z" fill="#FF4040"/>
<path d="M152.129 44.32C151.527 44.53 150.981 44.698 150.491 44.698C149.497 44.698 148.979 44.082 148.979 42.962V39.784H152.143V38.3H148.979V36.2L147.397 36.55V38.3H145.969V39.784H147.397V43.046C147.397 45.174 148.629 46.168 150.211 46.168C151.093 46.168 151.989 45.86 152.409 45.608L152.129 44.32Z" fill="#FF4040"/>
<path d="M160.295 44.488L160.323 44.474L161.863 43.144C163.865 41.394 164.901 40.512 164.901 39.028C164.901 37.376 163.599 36.032 161.513 36.032C159.483 36.032 158.013 37.306 157.789 39.35H159.385C159.595 38.23 160.253 37.544 161.443 37.544C162.647 37.544 163.305 38.244 163.305 39.098C163.305 39.966 162.745 40.456 160.547 42.374L157.705 44.866V46H165.139V44.488H160.295Z" fill="#FF4040"/>
<path d="M170.382 36.032C167.834 36.032 166.308 37.922 166.308 41.1C166.308 44.278 167.834 46.168 170.382 46.168C172.958 46.168 174.47 44.25 174.47 41.1C174.47 37.95 172.958 36.032 170.382 36.032ZM170.382 44.656C168.828 44.656 167.904 43.564 167.904 41.1C167.904 38.636 168.828 37.544 170.382 37.544C171.95 37.544 172.874 38.636 172.874 41.1C172.874 43.564 171.95 44.656 170.382 44.656Z" fill="#FF4040"/>
<path d="M178.191 44.488L178.219 44.474L179.759 43.144C181.761 41.394 182.797 40.512 182.797 39.028C182.797 37.376 181.495 36.032 179.409 36.032C177.379 36.032 175.909 37.306 175.685 39.35H177.281C177.491 38.23 178.149 37.544 179.339 37.544C180.543 37.544 181.201 38.244 181.201 39.098C181.201 39.966 180.641 40.456 178.443 42.374L175.601 44.866V46H183.035V44.488H178.191Z" fill="#FF4040"/>
<path d="M187.141 36.2L184.047 37.404V38.958L186.273 38.048V46H187.855V36.2H187.141Z" fill="#FF4040"/>
</svg>
