<svg xmlns="http://www.w3.org/2000/svg" viewBox="0 0 150.83 33.62"><defs><style>.cls-1{fill:#14234a;}.cls-2{fill:#f34611;}.cls-3{fill:#ce320d;}</style></defs><title>krkrb</title><g id="Layer_2" data-name="Layer 2"><g id="Warstwa_1" data-name="Warstwa 1"><path class="cls-1" d="M23.49,28.46A6.17,6.17,0,0,1,22.13,32a4.16,4.16,0,0,1-3.26,1.25A5.29,5.29,0,0,1,16,32.51a11.28,11.28,0,0,1-2.68-2.61L8.44,23.74v9l-1.61.27a12.94,12.94,0,0,1-2.16.18,11.57,11.57,0,0,1-2-.15,3.36,3.36,0,0,1-1.47-.6,2.87,2.87,0,0,1-.92-1.22,5.35,5.35,0,0,1-.32-2V.5C.36.4.9.29,1.61.17A14.29,14.29,0,0,1,3.77,0a11.7,11.7,0,0,1,2,.15A3.43,3.43,0,0,1,7.2.74,2.93,2.93,0,0,1,8.12,2a5.22,5.22,0,0,1,.32,2V17.08L17,8.34a6.8,6.8,0,0,1,4.14,1.15,3.43,3.43,0,0,1,1.57,2.88,3.74,3.74,0,0,1-.25,1.36A5,5,0,0,1,21.68,15a11.3,11.3,0,0,1-1.34,1.36L18.43,18l-2.88,2.48Z"/><path class="cls-1" d="M35.91,32.78a11.59,11.59,0,0,1-1.57.3,15.87,15.87,0,0,1-2.21.15,11.57,11.57,0,0,1-2-.15,3.27,3.27,0,0,1-1.46-.6,2.79,2.79,0,0,1-.92-1.22,5.14,5.14,0,0,1-.33-2V14.35a4.14,4.14,0,0,1,.43-2,4.61,4.61,0,0,1,1.21-1.46,8.92,8.92,0,0,1,2-1.17,20.31,20.31,0,0,1,2.5-.92,22.48,22.48,0,0,1,2.78-.62A18.66,18.66,0,0,1,39.24,8,6.81,6.81,0,0,1,43,8.91a3.34,3.34,0,0,1,1.39,3,4.94,4.94,0,0,1-.2,1.37,6,6,0,0,1-.5,1.21c-.69,0-1.4,0-2.13.1s-1.44.17-2.14.3-1.35.27-2,.42a8.61,8.61,0,0,0-1.56.52Z"/><path class="cls-1" d="M71.47,28.46A6.17,6.17,0,0,1,70.1,32a4.14,4.14,0,0,1-3.25,1.25A5.27,5.27,0,0,1,64,32.51a11.28,11.28,0,0,1-2.68-2.61l-4.92-6.16v9l-1.62.27a12.94,12.94,0,0,1-2.16.18,11.66,11.66,0,0,1-2-.15,3.27,3.27,0,0,1-1.46-.6,2.79,2.79,0,0,1-.92-1.22,5.16,5.16,0,0,1-.32-2V.5c.36-.1.9-.21,1.61-.33A14.09,14.09,0,0,1,51.75,0a11.57,11.57,0,0,1,2,.15,3.48,3.48,0,0,1,1.47.59A3,3,0,0,1,56.1,2a5.42,5.42,0,0,1,.32,2V17.08L65,8.34a6.83,6.83,0,0,1,4.15,1.15,3.44,3.44,0,0,1,1.56,2.88,3.54,3.54,0,0,1-.25,1.36A4.69,4.69,0,0,1,69.65,15a10,10,0,0,1-1.34,1.36c-.54.49-1.18,1-1.91,1.67l-2.88,2.48Z"/><path class="cls-1" d="M113.68,32.78a11.37,11.37,0,0,1-1.56.3,15.87,15.87,0,0,1-2.21.15,11.49,11.49,0,0,1-2-.15,3.36,3.36,0,0,1-1.47-.6,2.87,2.87,0,0,1-.92-1.22,5.35,5.35,0,0,1-.32-2V14.35a4.26,4.26,0,0,1,.42-2,4.64,4.64,0,0,1,1.22-1.46,8.83,8.83,0,0,1,2-1.17,20.47,20.47,0,0,1,2.51-.92,22.08,22.08,0,0,1,2.78-.62A18.62,18.62,0,0,1,117,8a6.76,6.76,0,0,1,3.77.91,3.34,3.34,0,0,1,1.39,3,4.92,4.92,0,0,1-.19,1.37,6.65,6.65,0,0,1-.5,1.21c-.7,0-1.41,0-2.14.1s-1.44.17-2.13.3-1.35.27-2,.42a8.48,8.48,0,0,0-1.57.52Z"/><path class="cls-1" d="M125.75.5a13.78,13.78,0,0,1,1.59-.33A14.91,14.91,0,0,1,129.57,0a11.7,11.7,0,0,1,2,.15A3.43,3.43,0,0,1,133,.74,2.73,2.73,0,0,1,133.9,2a5.94,5.94,0,0,1,.29,2V8.84a12.1,12.1,0,0,1,2.36-.69A13.47,13.47,0,0,1,139,8a12.22,12.22,0,0,1,4.52.84,11.22,11.22,0,0,1,3.78,2.46,11.51,11.51,0,0,1,2.58,4,14.86,14.86,0,0,1,.94,5.51,15,15,0,0,1-1,5.64,10.84,10.84,0,0,1-2.7,4,11.41,11.41,0,0,1-4.25,2.4,17.65,17.65,0,0,1-5.54.82,17.35,17.35,0,0,1-5.56-.77,14.4,14.4,0,0,1-3.87-1.91,4.66,4.66,0,0,1-2.19-4ZM137.37,27a4.29,4.29,0,0,0,3.55-1.57,7.21,7.21,0,0,0,1.27-4.64,7.15,7.15,0,0,0-1.29-4.67,4.32,4.32,0,0,0-3.48-1.54,6.58,6.58,0,0,0-1.71.2,9.53,9.53,0,0,0-1.57.6V26.17a4.7,4.7,0,0,0,1.32.57A6.88,6.88,0,0,0,137.37,27Z"/><path class="cls-2" d="M87.4,32.58a1.8,1.8,0,0,1-1.34-.6L75.82,20.51a1.79,1.79,0,0,1,0-2.32l5.12-6.26a1.78,1.78,0,0,1,1.39-.66H92.52a1.79,1.79,0,1,1,0,3.57h-9.4L79.5,19.27,88.73,29.6a1.78,1.78,0,0,1-1.33,3Z"/><path class="cls-3" d="M87.4,32.58a1.79,1.79,0,0,1-1.34-3l9.23-10.33-4.15-5.08a1.78,1.78,0,1,1,2.76-2.26L99,18.19a1.78,1.78,0,0,1,0,2.32L88.73,32A1.76,1.76,0,0,1,87.4,32.58Z"/></g></g></svg>