<svg version="1.1" id="Layer_1" xmlns="http://www.w3.org/2000/svg" xmlns:xlink="http://www.w3.org/1999/xlink" x="0px" y="0px" width="216.312px" height="94.114px" viewBox="3.591 0 216.312 94.114" enable-background="new 3.591 0 216.312 94.114" xml:space="preserve"> <g> <g> <path fill="#FDB913" d="M72.142,14.046h6.368l16.071,51.75h0.202v-51.75h5.256v68.226h-5.256L77.6,27.692h-0.202v54.58h-5.256
V14.046z"></path> <path fill="#FDB913" d="M109.637,26.175c0-7.276,5.862-13.139,13.14-13.139c7.278,0,13.141,5.862,13.141,13.139v43.969
c0,7.275-5.862,13.14-13.141,13.14c-7.277,0-13.14-5.863-13.14-13.14V26.175z M114.893,70.144c0,4.346,3.538,7.883,7.883,7.883
c4.347,0,7.884-3.537,7.884-7.883v-43.97c0-4.346-3.537-7.884-7.884-7.884c-4.346,0-7.883,3.538-7.883,7.884V70.144z"></path> <path fill="#FDB913" d="M150.771,52.556v29.716h-5.255V14.046h11.623c7.782,0,14.149,6.368,14.149,14.15v10.208
c0,7.783-6.367,14.15-14.149,14.15h-6.368V52.556z M157.139,47.3c4.952,0,8.896-3.941,8.896-8.895V28.197
c0-4.953-3.943-8.896-8.896-8.896h-6.368V47.3H157.139z"></path> <path fill="#FDB913" d="M178.767,82.271V14.046h5.256v68.226H178.767z"></path> <path fill="#FDB913" d="M193.625,26.175c0-7.276,5.861-13.139,13.14-13.139s13.14,5.862,13.14,13.139v43.969
c0,7.275-5.861,13.14-13.14,13.14c-7.277,0-13.14-5.863-13.14-13.14V26.175z M198.878,70.144c0,4.346,3.539,7.883,7.885,7.883
s7.883-3.537,7.883-7.883v-43.97c0-4.346-3.537-7.884-7.883-7.884s-7.885,3.538-7.885,7.884V70.144z"></path> </g> <g> <g> <g> <path fill="#FDB913" d="M6.764,47.458c-0.649-0.365-1.174-0.748-1.578-1.15c-0.406-0.487-0.81-1.033-1.216-1.641
c-0.402-0.604-0.482-1.032-0.24-1.273l12.98-12.982c0.729-0.728,0.729-1.458,0-2.184l-6.671-6.672
c-1.861-1.86-3.925-3.963-6.189-6.31c-0.324-0.322-0.344-0.729-0.06-1.214c0.284-0.484,0.747-1.05,1.396-1.698
c0.647-0.564,1.233-1.01,1.76-1.334c0.524-0.321,0.909-0.362,1.152-0.121l14.316,14.438c1.374,1.375,2.042,2.709,2.002,4.002
c-0.042,1.295-0.709,2.629-2.002,4.004L8.099,47.64C7.855,47.883,7.408,47.821,6.764,47.458z"></path> </g> <g> <path fill="#FDB913" d="M19.661,2.005c0.622-0.406,1.205-0.695,1.749-0.866c0.619-0.137,1.289-0.241,2.014-0.32
c0.724-0.08,1.139,0.043,1.243,0.372l5.523,17.508c0.312,0.982,0.956,1.318,1.937,1.007l9-2.838
c2.511-0.793,5.327-1.652,8.454-2.578c0.434-0.137,0.803,0.031,1.104,0.506c0.3,0.476,0.588,1.147,0.864,2.022
c0.202,0.834,0.326,1.559,0.37,2.176c0.045,0.615-0.096,0.978-0.424,1.079l-19.414,6.037c-1.855,0.584-3.345,0.562-4.475-0.072
c-1.129-0.634-2.007-1.844-2.628-3.624L18.882,3.105C18.779,2.778,19.039,2.411,19.661,2.005z"></path> </g> <g> <path fill="#FDB913" d="M54.029,34.425c0.075,0.739,0.061,1.39-0.039,1.952c-0.165,0.611-0.379,1.254-0.646,1.934
c-0.263,0.679-0.565,0.99-0.903,0.931L34.36,36.062c-1.016-0.178-1.611,0.239-1.787,1.254l-1.639,9.293
c-0.453,2.593-0.991,5.488-1.614,8.688c-0.078,0.45-0.396,0.699-0.958,0.745c-0.559,0.049-1.289-0.008-2.192-0.166
c-0.833-0.206-1.532-0.431-2.101-0.677c-0.565-0.242-0.821-0.537-0.761-0.873l3.605-20.012c0.337-1.913,1.046-3.226,2.128-3.938
c1.084-0.707,2.562-0.929,4.428-0.658l19.941,3.506C53.75,33.286,53.956,33.687,54.029,34.425z"></path> </g> </g> </g> </g> </svg>
