<svg width="57" height="53" viewBox="0 0 57 53" fill="none" xmlns="http://www.w3.org/2000/svg">
<path d="M50.0203 4.04814C50.0614 5.73359 48.8076 6.89931 47.1339 6.89931C46.7643 6.90358 46.3978 6.83173 46.0572 6.68822C45.7167 6.54471 45.4093 6.33262 45.1542 6.06516C44.8991 5.79769 44.7018 5.48059 44.5746 5.13357C44.4475 4.78656 44.3931 4.41708 44.4148 4.04814C44.3955 3.67261 44.4544 3.29715 44.5878 2.9456C44.7213 2.59405 44.9264 2.27408 45.19 2.00598C45.4537 1.73789 45.7702 1.52754 46.1195 1.38827C46.4688 1.24899 46.8432 1.18385 47.219 1.19696C48.8076 1.19696 50.0203 2.28047 50.0203 4.04814Z" fill="url(#paint0_linear)"/>
<path d="M56.8328 2.85283C56.8768 4.53828 55.6201 5.704 53.9464 5.704C53.5768 5.70827 53.2103 5.63641 52.8697 5.4929C52.5292 5.3494 52.2218 5.13731 51.9667 4.86984C51.7116 4.60238 51.5143 4.28527 51.3871 3.93826C51.26 3.59125 51.2056 3.22177 51.2273 2.85283C51.208 2.4773 51.2669 2.10184 51.4003 1.75029C51.5338 1.39874 51.7389 1.07876 52.0025 0.810672C52.2662 0.54258 52.5827 0.332224 52.932 0.192953C53.2813 0.0536819 53.6557 -0.0114635 54.0315 0.00165062C55.6201 0.00165062 56.8328 1.08516 56.8328 2.85283Z" fill="url(#paint1_linear)"/>
<path d="M42.9656 5.60283C43.0067 7.28828 41.7529 8.454 40.0792 8.454C39.7096 8.45827 39.3431 8.38642 39.0026 8.24291C38.662 8.0994 38.3546 7.88731 38.0995 7.61984C37.8444 7.35238 37.6472 7.03527 37.52 6.68826C37.3928 6.34125 37.3384 5.97177 37.3602 5.60283C37.3408 5.2273 37.3997 4.85184 37.5332 4.50029C37.6666 4.14874 37.8717 3.82876 38.1354 3.56067C38.399 3.29258 38.7156 3.08222 39.0648 2.94295C39.4141 2.80368 39.7885 2.73854 40.1643 2.75165C41.7529 2.75165 42.9656 3.83516 42.9656 5.60283Z" fill="url(#paint2_linear)"/>
<path d="M6.5069 29.0274L0 35.6371L0.0205542 38.3209L9.30229 38.3708L9.3111 29.0039L6.5069 29.0274Z" fill="#BB203C"/>
<path d="M0.267671 47.1383C0.267671 46.369 0.267671 45.8698 0.226562 45.4206H1.61251L1.67711 46.3954H1.72115C1.81078 46.0887 1.99507 45.8182 2.24768 45.6226C2.5003 45.4269 2.80829 45.3161 3.12765 45.3061C3.24297 45.3051 3.35809 45.3159 3.47121 45.3384V46.8653C3.32684 46.8388 3.18045 46.8251 3.03369 46.8241C2.78063 46.802 2.5282 46.873 2.32382 47.0239C2.11944 47.1747 1.97718 47.395 1.92376 47.6434C1.9004 47.7633 1.88957 47.8853 1.89146 48.0075V50.6502H0.267671V47.1383Z" fill="url(#paint3_linear)"/>
<path d="M8.54595 49.3821C8.53494 49.8037 8.56345 50.2255 8.63111 50.6418H7.16294L7.06604 50.1162H7.04549C6.86007 50.328 6.62962 50.4957 6.37102 50.607C6.11241 50.7183 5.8322 50.7703 5.5509 50.7593C5.3333 50.7708 5.11563 50.7379 4.91118 50.6626C4.70673 50.5872 4.51979 50.4709 4.36178 50.3209C4.20377 50.1708 4.078 49.9902 3.99216 49.7899C3.90631 49.5896 3.8622 49.3739 3.86251 49.156C3.86251 47.8024 5.08108 47.1593 6.92803 47.1593V47.0977C6.92803 46.804 6.77828 46.4135 5.97666 46.4135C5.46993 46.419 4.97325 46.5556 4.53493 46.8099L4.24129 45.7616C4.86894 45.4412 5.56569 45.2799 6.2703 45.2918C8.01154 45.2918 8.55476 46.3166 8.55476 47.5557L8.54595 49.3821ZM6.97795 48.1753C6.12348 48.1753 5.46281 48.3779 5.46281 48.9975C5.45646 49.0826 5.46876 49.1681 5.49886 49.2481C5.52895 49.328 5.57611 49.4004 5.63705 49.4602C5.69799 49.52 5.77125 49.5658 5.85171 49.5944C5.93217 49.623 6.0179 49.6338 6.10293 49.6258C6.28658 49.6258 6.46581 49.5695 6.61648 49.4645C6.76715 49.3595 6.88204 49.2108 6.94565 49.0386C6.96837 48.9424 6.97922 48.8438 6.97795 48.7449V48.1753Z" fill="url(#paint4_linear)"/>
<path d="M11.5186 43.9705C11.519 44.0831 11.496 44.1946 11.4509 44.2978C11.4058 44.401 11.3398 44.4937 11.2569 44.5699C11.174 44.6462 11.0761 44.7043 10.9695 44.7407C10.8629 44.777 10.7499 44.7907 10.6377 44.7809C10.527 44.786 10.4164 44.7684 10.3127 44.7292C10.209 44.6901 10.1145 44.6301 10.0348 44.553C9.95511 44.476 9.89203 44.3835 9.84941 44.2812C9.80679 44.1789 9.78552 44.0689 9.78693 43.9581C9.78833 43.8473 9.81237 43.7379 9.85756 43.6367C9.90276 43.5355 9.96817 43.4446 10.0498 43.3696C10.1314 43.2946 10.2274 43.237 10.3321 43.2005C10.4367 43.164 10.5477 43.1492 10.6583 43.1571C10.7688 43.1502 10.8795 43.1662 10.9836 43.2041C11.0876 43.242 11.1827 43.301 11.263 43.3773C11.3432 43.4537 11.4067 43.5458 11.4497 43.6478C11.4927 43.7499 11.5141 43.8597 11.5127 43.9705H11.5186ZM9.83608 45.421H11.454V50.6418H9.84195L9.83608 45.421Z" fill="url(#paint5_linear)"/>
<path d="M14.3876 43.0641H12.7638V50.6428H14.3876V43.0641Z" fill="url(#paint6_linear)"/>
<path d="M16.8189 45.4223L17.2476 47.5717C17.3415 48.1032 17.4502 48.6816 17.5412 49.2777H17.5735C17.6675 48.6904 17.829 48.1032 17.9464 47.5805L18.4984 45.4223H19.7787L20.3014 47.5041C20.4511 48.0914 20.595 48.6787 20.686 49.2659H20.7066C20.7829 48.6787 20.8886 48.0914 21.0178 47.4836L21.4553 45.4282H23.0468L21.4348 50.6431H19.9255L19.4351 48.8167C19.291 48.2788 19.1743 47.7339 19.0857 47.1841C19.0085 47.7304 18.8987 48.2717 18.7568 48.8049L18.2048 50.6431H16.6926L15.1657 45.4223H16.8189Z" fill="url(#paint7_linear)"/>
<path d="M28.0722 49.3822C28.0611 49.8038 28.0896 50.2255 28.1573 50.6418H26.6891L26.5922 50.1162H26.5599C26.3749 50.3286 26.1446 50.4966 25.8858 50.6079C25.6271 50.7192 25.3467 50.7709 25.0654 50.7593C24.8479 50.7709 24.6304 50.738 24.4261 50.6626C24.2218 50.5872 24.035 50.4709 23.8772 50.3208C23.7195 50.1707 23.594 49.99 23.5085 49.7897C23.4229 49.5894 23.3792 49.3738 23.3799 49.1561C23.3799 47.8024 24.5955 47.1594 26.4425 47.1594V47.0977C26.4425 46.8041 26.2927 46.4135 25.4941 46.4135C24.9873 46.419 24.4906 46.5556 24.0523 46.8099L23.7587 45.7617C24.3862 45.4409 25.083 45.2795 25.7877 45.2919C27.526 45.2919 28.0722 46.3166 28.0722 47.5558V49.3822ZM26.5012 48.1753C25.6467 48.1753 24.9861 48.3779 24.9861 48.9975C24.9797 49.0827 24.992 49.1682 25.0221 49.2481C25.0522 49.328 25.0994 49.4004 25.1603 49.4602C25.2213 49.52 25.2945 49.5659 25.375 49.5945C25.4554 49.6231 25.5412 49.6338 25.6262 49.6259C25.8104 49.6284 25.9908 49.5731 26.142 49.4678C26.2932 49.3624 26.4075 49.2123 26.4689 49.0386C26.4932 48.9427 26.5041 48.8439 26.5012 48.745V48.1753Z" fill="url(#paint8_linear)"/>
<path d="M30.4489 45.4222L31.23 47.9944C31.3151 48.288 31.4208 48.6874 31.4854 48.9663H31.5265C31.5911 48.6727 31.6763 48.2939 31.7526 47.9826L32.4045 45.4222H34.131L32.9154 48.8577C32.1696 50.9395 31.6675 51.7617 31.0802 52.2844C30.6465 52.6778 30.102 52.928 29.521 53.0008L29.1686 51.6354C29.4163 51.5716 29.6536 51.4727 29.8734 51.3418C30.1496 51.1856 30.3811 50.9611 30.5458 50.6899C30.594 50.6203 30.6233 50.5394 30.6309 50.455C30.6277 50.3625 30.6057 50.2716 30.5663 50.1878L28.646 45.4075L30.4489 45.4222Z" fill="url(#paint9_linear)"/>
<path d="M34.8151 47.0873C34.8151 46.4354 34.7946 45.8922 34.774 45.4224H36.1482L36.2128 46.1271H36.2451C36.4135 45.863 36.6477 45.6473 36.9247 45.5011C37.2016 45.3549 37.5118 45.2832 37.8249 45.2932C38.1267 45.2775 38.4261 45.3554 38.682 45.5162C38.9379 45.677 39.138 45.9129 39.2549 46.1917H39.2783C39.4574 45.9324 39.6896 45.7142 39.9596 45.5516C40.2618 45.3793 40.6042 45.2902 40.9521 45.2932C41.9563 45.2932 42.7139 45.9979 42.7139 47.5688V50.6432H41.1341V47.8037C41.1341 47.0462 40.8875 46.6057 40.3648 46.6057C40.1952 46.6094 40.031 46.666 39.8951 46.7676C39.7593 46.8692 39.6586 47.0107 39.6072 47.1724C39.5725 47.3087 39.5547 47.4487 39.5544 47.5894V50.6432H37.9746V47.7068C37.9746 47.055 37.7397 46.6057 37.217 46.6057C37.0455 46.6129 36.8804 46.6734 36.7446 46.7786C36.6089 46.8838 36.5093 47.0286 36.4595 47.193C36.4114 47.3255 36.3895 47.4661 36.3949 47.607V50.652H34.8151V47.0873Z" fill="url(#paint10_linear)"/>
<path d="M45.247 48.5502C45.2881 49.2226 45.9605 49.5427 46.7152 49.5427C47.2041 49.5557 47.6917 49.4852 48.1569 49.3342L48.3712 50.4324C47.7689 50.6663 47.1263 50.7791 46.4802 50.7642C44.7184 50.7642 43.6937 49.7394 43.6937 48.1215C43.6937 46.7972 44.5158 45.3349 46.3364 45.3349C48.0248 45.3349 48.6649 46.6474 48.6649 47.9394C48.6646 48.1539 48.6469 48.3679 48.612 48.5795L45.247 48.5502ZM47.1556 47.4402C47.1556 47.0468 46.9853 46.3832 46.2395 46.3832C45.5553 46.3832 45.2764 47.0145 45.2352 47.4402H47.1556Z" fill="url(#paint11_linear)"/>
<path d="M49.6261 47.0889C49.6261 46.437 49.6026 45.8938 49.5821 45.424H50.9915L51.0649 46.1492H51.0943C51.2697 45.8838 51.5096 45.6672 51.7916 45.5198C52.0735 45.3724 52.3883 45.299 52.7063 45.3065C53.7752 45.3065 54.5738 46.02 54.5738 47.5587V50.6448H52.953V47.7495C52.953 47.0771 52.7181 46.6191 52.1308 46.6191C51.9456 46.6198 51.7653 46.6789 51.6155 46.7881C51.4658 46.8972 51.3543 47.0507 51.2969 47.2269C51.2565 47.358 51.2386 47.495 51.244 47.6321V50.6448H49.6261V47.0889Z" fill="url(#paint12_linear)"/>
<path d="M17.0327 36.2773C17.0327 37.5487 15.7965 38.5823 14.2725 38.5823C12.7486 38.5823 11.5153 37.5487 11.5153 36.2773V24.6935C11.5153 22.7291 11.4331 20.6032 11.3479 18.7973H16.1048L16.3984 21.6455H16.5247C17.4438 19.5608 19.0734 18.4773 20.5768 18.4773C20.9701 18.4561 21.3645 18.4827 21.7514 18.5565V23.7715C21.3641 23.7009 20.9701 23.6743 20.5768 23.6922C19.4023 23.6922 17.8607 24.4527 17.2353 26.4993C17.083 27.1426 17.0149 27.8029 17.0327 28.4637V36.2773Z" fill="url(#paint13_linear)"/>
<path d="M37.749 14.5721H43.2223L43.193 36.2774C43.193 37.5489 41.9656 38.5824 40.4504 38.5824C38.9353 38.5824 37.7108 37.5489 37.7108 36.2774L37.749 14.5721Z" fill="url(#paint14_linear)"/>
<path d="M54.5887 10.7148V13.2166H51.253V36.2081C51.253 37.4824 50.0227 38.5189 48.5105 38.5189C46.9983 38.5189 45.765 37.4824 45.765 36.2081V10.7148H54.5887Z" fill="url(#paint15_linear)"/>
<path d="M36.1168 33.7364C36.0935 35.241 36.2055 36.7445 36.4515 38.229H31.5273L31.2337 36.3028H31.1485C30.636 37.0157 29.9574 37.5928 29.1715 37.9842C28.3856 38.3756 27.5161 38.5695 26.6383 38.5491C23.5464 38.5491 21.2472 36.0649 21.2472 32.5736C21.2472 27.438 25.9689 25.3121 30.6053 25.2739V24.8335C30.6053 23.3066 29.6451 22.1908 27.7248 22.1908C26.2546 22.1673 24.8072 22.5558 23.5464 23.3125L22.5422 19.7889C23.6697 19.1487 26.0658 18.306 28.8934 18.306C35.1185 18.2943 36.1168 22.4639 36.1168 26.4308V33.7364ZM30.7756 28.683C28.9345 28.7212 26.4269 29.285 26.4269 32.0099C26.4269 33.9743 27.5545 34.6966 28.3884 34.6966C28.8956 34.6943 29.3887 34.5294 29.7951 34.226C30.2016 33.9226 30.5 33.4968 30.6464 33.0112C30.7314 32.7112 30.7739 32.4009 30.7727 32.0891L30.7756 28.683Z" fill="url(#paint16_linear)"/>
<defs>
<linearGradient id="paint0_linear" x1="44.3806" y1="4.12789" x2="49.9737" y2="4.12789" gradientUnits="userSpaceOnUse">
<stop stop-color="#A42060"/>
<stop offset="1" stop-color="#921F7B"/>
</linearGradient>
<linearGradient id="paint1_linear" x1="51.2396" y1="2.86351" x2="56.8327" y2="2.86351" gradientUnits="userSpaceOnUse">
<stop stop-color="#8D1F82"/>
<stop offset="1" stop-color="#7C1F9C"/>
</linearGradient>
<linearGradient id="paint2_linear" x1="37.3456" y1="5.57193" x2="42.9387" y2="5.57193" gradientUnits="userSpaceOnUse">
<stop stop-color="#BA203E"/>
<stop offset="1" stop-color="#A92058"/>
</linearGradient>
<linearGradient id="paint3_linear" x1="0.226563" y1="31.8578" x2="54.5887" y2="31.8578" gradientUnits="userSpaceOnUse">
<stop stop-color="#220A67"/>
<stop offset="1" stop-color="#3109A3"/>
</linearGradient>
<linearGradient id="paint4_linear" x1="0.226563" y1="31.8578" x2="54.5887" y2="31.8578" gradientUnits="userSpaceOnUse">
<stop stop-color="#220A67"/>
<stop offset="1" stop-color="#3109A3"/>
</linearGradient>
<linearGradient id="paint5_linear" x1="0.226563" y1="31.8578" x2="54.5887" y2="31.8578" gradientUnits="userSpaceOnUse">
<stop stop-color="#220A67"/>
<stop offset="1" stop-color="#3109A3"/>
</linearGradient>
<linearGradient id="paint6_linear" x1="0.226563" y1="31.8578" x2="54.5887" y2="31.8578" gradientUnits="userSpaceOnUse">
<stop stop-color="#220A67"/>
<stop offset="1" stop-color="#3109A3"/>
</linearGradient>
<linearGradient id="paint7_linear" x1="0.226563" y1="31.8578" x2="54.5887" y2="31.8578" gradientUnits="userSpaceOnUse">
<stop stop-color="#220A67"/>
<stop offset="1" stop-color="#3109A3"/>
</linearGradient>
<linearGradient id="paint8_linear" x1="0.226563" y1="31.8578" x2="54.5887" y2="31.8578" gradientUnits="userSpaceOnUse">
<stop stop-color="#220A67"/>
<stop offset="1" stop-color="#3109A3"/>
</linearGradient>
<linearGradient id="paint9_linear" x1="0.226563" y1="31.8578" x2="54.5887" y2="31.8578" gradientUnits="userSpaceOnUse">
<stop stop-color="#220A67"/>
<stop offset="1" stop-color="#3109A3"/>
</linearGradient>
<linearGradient id="paint10_linear" x1="0.226563" y1="31.8578" x2="54.5887" y2="31.8578" gradientUnits="userSpaceOnUse">
<stop stop-color="#220A67"/>
<stop offset="1" stop-color="#3109A3"/>
</linearGradient>
<linearGradient id="paint11_linear" x1="0.226563" y1="31.8578" x2="54.5887" y2="31.8578" gradientUnits="userSpaceOnUse">
<stop stop-color="#220A67"/>
<stop offset="1" stop-color="#3109A3"/>
</linearGradient>
<linearGradient id="paint12_linear" x1="0.226563" y1="31.8578" x2="54.5887" y2="31.8578" gradientUnits="userSpaceOnUse">
<stop stop-color="#220A67"/>
<stop offset="1" stop-color="#3109A3"/>
</linearGradient>
<linearGradient id="paint13_linear" x1="0.226563" y1="31.8578" x2="54.5887" y2="31.8578" gradientUnits="userSpaceOnUse">
<stop stop-color="#220A67"/>
<stop offset="1" stop-color="#3109A3"/>
</linearGradient>
<linearGradient id="paint14_linear" x1="0.226563" y1="31.8578" x2="54.5887" y2="31.8578" gradientUnits="userSpaceOnUse">
<stop stop-color="#220A67"/>
<stop offset="1" stop-color="#3109A3"/>
</linearGradient>
<linearGradient id="paint15_linear" x1="0.226563" y1="31.8578" x2="54.5887" y2="31.8578" gradientUnits="userSpaceOnUse">
<stop stop-color="#220A67"/>
<stop offset="1" stop-color="#3109A3"/>
</linearGradient>
<linearGradient id="paint16_linear" x1="0.226563" y1="31.8578" x2="54.5887" y2="31.8578" gradientUnits="userSpaceOnUse">
<stop stop-color="#220A67"/>
<stop offset="1" stop-color="#3109A3"/>
</linearGradient>
</defs>
</svg>
